<?xml version="1.0" encoding="UTF-8"?>
<!DOCTYPE svg PUBLIC "-//W3C//DTD SVG 1.1//EN" "http://www.w3.org/Graphics/SVG/1.1/DTD/svg11.dtd">
<svg xmlns="http://www.w3.org/2000/svg" version="1.1" width="500px" height="500px" style="shape-rendering:geometricPrecision; text-rendering:geometricPrecision; image-rendering:optimizeQuality; fill-rule:evenodd; clip-rule:evenodd" xmlns:xlink="http://www.w3.org/1999/xlink">
<g><path style="opacity:0.004" fill="#fefffe" d="M 204.5,15.5 C 205.833,16.1667 205.833,16.1667 204.5,15.5 Z"/></g>
<g><path style="opacity:0.004" fill="#fefffe" d="M 104.5,22.5 C 105.833,23.1667 105.833,23.1667 104.5,22.5 Z"/></g>
<g><path style="opacity:0.004" fill="#fefffe" d="M 56.5,45.5 C 57.8333,46.1667 57.8333,46.1667 56.5,45.5 Z"/></g>
<g><path style="opacity:0.004" fill="#fefffe" d="M 316.5,49.5 C 317.833,50.1667 317.833,50.1667 316.5,49.5 Z"/></g>
<g><path style="opacity:0.004" fill="#fefffe" d="M 54.5,53.5 C 55.8333,54.1667 55.8333,54.1667 54.5,53.5 Z"/></g>
<g><path style="opacity:0.004" fill="#fefffe" d="M 430.5,62.5 C 431.833,63.1667 431.833,63.1667 430.5,62.5 Z"/></g>
<g><path style="opacity:0.004" fill="#fefffe" d="M 458.5,64.5 C 459.833,65.1667 459.833,65.1667 458.5,64.5 Z"/></g>
<g><path style="opacity:0.004" fill="#fefffe" d="M 383.5,65.5 C 384.833,66.1667 384.833,66.1667 383.5,65.5 Z"/></g>
<g><path style="opacity:0.004" fill="#fefffe" d="M 409.5,67.5 C 410.833,68.1667 410.833,68.1667 409.5,67.5 Z"/></g>
<g><path style="opacity:0.004" fill="#fefffe" d="M 340.5,74.5 C 341.833,75.1667 341.833,75.1667 340.5,74.5 Z"/></g>
<g><path style="opacity:0.004" fill="#fefffe" d="M 474.5,82.5 C 475.833,83.1667 475.833,83.1667 474.5,82.5 Z"/></g>
<g><path style="opacity:0.004" fill="#fefffe" d="M 40.5,91.5 C 41.8333,92.1667 41.8333,92.1667 40.5,91.5 Z"/></g>
<g><path style="opacity:0.004" fill="#fefffe" d="M 49.5,92.5 C 50.8333,93.1667 50.8333,93.1667 49.5,92.5 Z"/></g>
<g><path style="opacity:0.004" fill="#fefffe" d="M 437.5,95.5 C 438.833,96.1667 438.833,96.1667 437.5,95.5 Z"/></g>
<g><path style="opacity:0.004" fill="#fefffe" d="M 350.5,103.5 C 351.833,104.167 351.833,104.167 350.5,103.5 Z"/></g>
<g><path style="opacity:1" fill="#0e4569" d="M 450.5,112.5 C 448.851,110.825 447.518,108.825 446.5,106.5C 443.539,107.582 440.539,107.582 437.5,106.5C 435.865,106.878 434.365,107.544 433,108.5C 430.457,106.03 427.623,105.363 424.5,106.5C 407.709,102.596 393.542,107.263 382,120.5C 375.863,132.615 368.363,143.782 359.5,154C 353.663,157.668 347.329,159.835 340.5,160.5C 344.845,158.367 349.345,156.367 354,154.5C 354.614,152.687 354.281,152.353 353,153.5C 352.25,152.874 351.416,152.374 350.5,152C 354.839,145.775 359.505,139.942 364.5,134.5C 365.292,131.027 366.292,127.694 367.5,124.5C 367.5,123.833 367.5,123.167 367.5,122.5C 384.748,96.6967 408.081,89.1967 437.5,100C 441.993,102.079 446.326,104.412 450.5,107C 451.807,108.943 451.807,110.777 450.5,112.5 Z"/></g>
<g><path style="opacity:1" fill="#1e4c6d" d="M 242.5,104.5 C 248.279,104.112 250.779,106.778 250,112.5C 247.029,116.092 243.696,116.425 240,113.5C 238.93,109.858 239.764,106.858 242.5,104.5 Z"/></g>
<g><path style="opacity:1" fill="#214665" d="M 259.5,104.5 C 265.908,104.81 267.908,107.976 265.5,114C 258.083,116.922 255.25,114.422 257,106.5C 257.995,105.934 258.828,105.267 259.5,104.5 Z"/></g>
<g><path style="opacity:1" fill="#154567" d="M 314.5,108.5 C 329.842,109.853 334.342,117.52 328,131.5C 322.209,136.18 316.042,136.68 309.5,133C 304.346,127.656 303.18,121.489 306,114.5C 308.671,112.098 311.505,110.098 314.5,108.5 Z M 315.5,118.5 C 321.158,117.679 322.825,119.846 320.5,125C 314.244,125.934 312.577,123.767 315.5,118.5 Z"/></g>
<g><path style="opacity:1" fill="#093858" d="M 450.5,112.5 C 433.414,110.337 419.247,115.671 408,128.5C 403.449,138.134 400.616,148.134 399.5,158.5C 398.826,153.185 399.159,147.852 400.5,142.5C 399.992,138.077 399.159,133.744 398,129.5C 396.24,132.427 393.74,134.427 390.5,135.5C 389.453,134.078 389.453,132.578 390.5,131C 390.192,129.541 389.525,128.374 388.5,127.5C 393.129,121.027 398.795,115.694 405.5,111.5C 411.356,108.119 417.689,106.452 424.5,106.5C 427.623,105.363 430.457,106.03 433,108.5C 434.365,107.544 435.865,106.878 437.5,106.5C 440.539,107.582 443.539,107.582 446.5,106.5C 447.518,108.825 448.851,110.825 450.5,112.5 Z"/></g>
<g><path style="opacity:0.976" fill="#f9fcfc" d="M 138.5,122.5 C 141.846,123.896 145.179,125.396 148.5,127C 152.533,131.368 156.866,135.368 161.5,139C 164.363,140.399 167.363,141.399 170.5,142C 187.833,142.333 205.167,142.667 222.5,143C 224.871,145.852 227.871,147.686 231.5,148.5C 238.723,147.037 245.723,144.87 252.5,142C 251.944,141.617 251.611,141.117 251.5,140.5C 252.833,140.5 254.167,140.5 255.5,140.5C 255.389,141.117 255.056,141.617 254.5,142C 262.253,147.026 270.586,148.692 279.5,147C 281.167,145.333 282.833,143.667 284.5,142C 283.584,141.722 282.918,141.222 282.5,140.5C 283.833,140.5 285.167,140.5 286.5,140.5C 289.851,142.139 293.518,143.139 297.5,143.5C 310.807,142.702 324.141,142.202 337.5,142C 341.615,140.777 345.282,138.777 348.5,136C 351.623,132.387 354.956,129.054 358.5,126C 361.647,125.119 364.647,123.953 367.5,122.5C 367.5,123.167 367.5,123.833 367.5,124.5C 364.452,130.911 360.619,136.911 356,142.5C 350.275,147.945 343.441,151.111 335.5,152C 321.833,152.333 308.167,152.667 294.5,153C 287.308,154.29 280.641,156.79 274.5,160.5C 260.458,152.59 246.458,152.59 232.5,160.5C 225.481,157.105 218.147,154.605 210.5,153C 197.167,152.667 183.833,152.333 170.5,152C 161.17,151.086 153.67,146.919 148,139.5C 144.302,134.102 141.136,128.435 138.5,122.5 Z"/></g>
<g><path style="opacity:0.004" fill="#fefffe" d="M 347.5,124.5 C 348.833,125.167 348.833,125.167 347.5,124.5 Z"/></g>
<g><path style="opacity:1" fill="#0a3755" d="M 69.5,100.5 C 71.7345,100.38 73.9011,100.713 76,101.5C 78.2736,103.899 80.4403,105.566 82.5,106.5C 89.6026,107.09 96.2693,109.09 102.5,112.5C 114.192,121.828 123.025,133.495 129,147.5C 130.652,146.601 132.152,145.601 133.5,144.5C 135.184,146.017 136.517,147.85 137.5,150C 136.35,151.981 135.016,153.814 133.5,155.5C 131.716,155.893 130.05,156.559 128.5,157.5C 128.087,155.11 127.421,152.777 126.5,150.5C 126.167,151.167 125.833,151.833 125.5,152.5C 123.885,151.846 122.218,151.346 120.5,151C 119.663,149.989 119.33,148.822 119.5,147.5C 116.813,147.664 114.146,147.497 111.5,147C 111.07,146.08 110.736,145.247 110.5,144.5C 108.608,146.871 108.275,149.371 109.5,152C 108.675,154.778 108.008,157.611 107.5,160.5C 105.787,152.606 103.954,144.606 102,136.5C 97.133,124.298 88.2997,116.798 75.5,114C 68.5863,113.814 61.7529,113.314 55,112.5C 54.2571,110.559 54.4238,108.726 55.5,107C 60.0683,104.548 64.735,102.382 69.5,100.5 Z"/></g>
<g><path style="opacity:1" fill="#b4d2e4" d="M 405.5,111.5 C 398.795,115.694 393.129,121.027 388.5,127.5C 384.426,133.976 380.592,140.643 377,147.5C 375.482,146.837 374.315,145.837 373.5,144.5C 377.641,137.563 381.807,130.563 386,123.5C 391.167,117.333 397.667,113.333 405.5,111.5 Z"/></g>
<g><path style="opacity:1" fill="#154363" d="M 185.5,108.5 C 200.449,109.396 204.949,116.729 199,130.5C 194.084,135.72 188.25,136.887 181.5,134C 175.452,128.688 173.952,122.188 177,114.5C 179.671,112.098 182.505,110.098 185.5,108.5 Z M 187.5,117.5 C 192.266,118.158 193.6,120.658 191.5,125C 186.338,126.424 184.171,124.59 185,119.5C 185.995,118.934 186.828,118.267 187.5,117.5 Z"/></g>
<g><path style="opacity:1" fill="#b6d6e9" d="M 102.5,112.5 C 110.668,114.178 117.168,118.511 122,125.5C 125.697,132.004 129.53,138.338 133.5,144.5C 132.152,145.601 130.652,146.601 129,147.5C 123.025,133.495 114.192,121.828 102.5,112.5 Z"/></g>
<g><path style="opacity:1" fill="#34516b" d="M 220.5,129.5 C 226.82,129.32 229.32,132.32 228,138.5C 224.667,142.5 221.333,142.5 218,138.5C 216.927,134.9 217.76,131.9 220.5,129.5 Z"/></g>
<g><path style="opacity:1" fill="#033c6b" d="M 221.5,131.5 C 222.93,131.421 224.264,131.754 225.5,132.5C 226.363,134.771 226.363,137.105 225.5,139.5C 222.084,140.134 220.084,138.8 219.5,135.5C 219.803,133.886 220.47,132.552 221.5,131.5 Z"/></g>
<g><path style="opacity:1" fill="#1b4864" d="M 255.5,140.5 C 254.167,140.5 252.833,140.5 251.5,140.5C 247.951,139.043 246.784,136.377 248,132.5C 252.88,128.077 256.713,128.91 259.5,135C 258.968,137.463 257.634,139.297 255.5,140.5 Z"/></g>
<g><path style="opacity:1" fill="#114468" d="M 286.5,140.5 C 285.167,140.5 283.833,140.5 282.5,140.5C 279.714,140.044 278.381,138.377 278.5,135.5C 279.952,129.012 283.119,128.012 288,132.5C 288.891,135.498 288.391,138.164 286.5,140.5 Z"/></g>
<g><path style="opacity:0.004" fill="#fefffe" d="M 13.5,146.5 C 14.8333,147.167 14.8333,147.167 13.5,146.5 Z"/></g>
<g><path style="opacity:1" fill="#f6fafb" d="M 198.5,172.5 C 198.435,175.428 197.768,178.095 196.5,180.5C 191.076,180.312 185.743,179.478 180.5,178C 179.663,176.989 179.33,175.822 179.5,174.5C 178.167,174.5 176.833,174.5 175.5,174.5C 174.167,174.5 172.833,174.5 171.5,174.5C 168.5,174.5 165.5,174.5 162.5,174.5C 162.5,173.5 162.5,172.5 162.5,171.5C 161.5,171.5 160.5,171.5 159.5,171.5C 159.688,169.897 159.188,168.563 158,167.5C 156.333,167.833 154.667,168.167 153,168.5C 150.674,165.989 147.841,164.656 144.5,164.5C 143.18,163.058 141.514,162.392 139.5,162.5C 136.757,160.761 134.757,158.427 133.5,155.5C 135.016,153.814 136.35,151.981 137.5,150C 136.517,147.85 135.184,146.017 133.5,144.5C 129.53,138.338 125.697,132.004 122,125.5C 117.168,118.511 110.668,114.178 102.5,112.5C 96.2693,109.09 89.6026,107.09 82.5,106.5C 100.735,102.752 115.568,108.418 127,123.5C 131.791,134.26 137.957,144.093 145.5,153C 155.773,159.196 166.94,162.696 179,163.5C 186.134,162.59 193.3,162.256 200.5,162.5C 199.626,165.789 198.959,169.123 198.5,172.5 Z"/></g>
<g><path style="opacity:1" fill="#0e4466" d="M 138.5,122.5 C 141.136,128.435 144.302,134.102 148,139.5C 153.67,146.919 161.17,151.086 170.5,152C 183.833,152.333 197.167,152.667 210.5,153C 218.147,154.605 225.481,157.105 232.5,160.5C 246.458,152.59 260.458,152.59 274.5,160.5C 272.513,161.503 270.346,161.503 268,160.5C 265.938,159.271 263.771,158.271 261.5,157.5C 258.271,158.983 257.937,160.816 260.5,163C 259.552,163.483 258.552,163.649 257.5,163.5C 251.046,162.859 245.38,164.526 240.5,168.5C 242.763,171.37 242.43,174.036 239.5,176.5C 238.614,172.963 236.281,171.296 232.5,171.5C 232.322,174.216 231.822,176.883 231,179.5C 230.722,178.584 230.222,177.918 229.5,177.5C 229.869,175.559 230.536,173.725 231.5,172C 224.985,168.577 218.319,165.41 211.5,162.5C 210.831,164.631 210.165,166.631 209.5,168.5C 209.565,168.062 209.399,167.728 209,167.5C 208.104,170.14 206.604,172.307 204.5,174C 206.994,175.912 206.827,177.746 204,179.5C 201.72,177.386 199.887,175.053 198.5,172.5C 198.959,169.123 199.626,165.789 200.5,162.5C 193.3,162.256 186.134,162.59 179,163.5C 166.94,162.696 155.773,159.196 145.5,153C 137.957,144.093 131.791,134.26 127,123.5C 115.568,108.418 100.735,102.752 82.5,106.5C 80.4403,105.566 78.2736,103.899 76,101.5C 73.9011,100.713 71.7345,100.38 69.5,100.5C 94.145,90.0326 115.645,94.6993 134,114.5C 135.328,117.312 136.828,119.978 138.5,122.5 Z"/></g>
<g><path style="opacity:1" fill="#f3f9fa" d="M 424.5,106.5 C 417.689,106.452 411.356,108.119 405.5,111.5C 397.667,113.333 391.167,117.333 386,123.5C 381.807,130.563 377.641,137.563 373.5,144.5C 370.63,145.528 368.63,147.528 367.5,150.5C 369.571,152.185 371.571,153.852 373.5,155.5C 371.431,158.573 368.764,160.906 365.5,162.5C 361.305,163.967 359.305,166.633 359.5,170.5C 359.106,172.71 357.773,174.043 355.5,174.5C 353.258,169.82 349.924,169.154 345.5,172.5C 344.708,173.7 344.708,175.033 345.5,176.5C 343.147,178.343 340.48,179.677 337.5,180.5C 337.034,175.665 334.367,173.665 329.5,174.5C 326.099,173.227 324.766,174.56 325.5,178.5C 320.196,179.384 314.863,180.051 309.5,180.5C 307.857,174.641 306.857,168.641 306.5,162.5C 313.047,162.225 319.547,162.558 326,163.5C 331.036,162.86 335.869,161.86 340.5,160.5C 347.329,159.835 353.663,157.668 359.5,154C 368.363,143.782 375.863,132.615 382,120.5C 393.542,107.263 407.709,102.596 424.5,106.5 Z"/></g>
<g><path style="opacity:1" fill="#b8d6e9" d="M 373.5,155.5 C 377.392,157.062 380.725,159.395 383.5,162.5C 380.728,165.694 377.728,168.694 374.5,171.5C 371.167,168.833 368.167,165.833 365.5,162.5C 368.764,160.906 371.431,158.573 373.5,155.5 Z"/></g>
<g><path style="opacity:1" fill="#bbdaed" d="M 133.5,155.5 C 134.757,158.427 136.757,160.761 139.5,162.5C 137.528,166.105 134.861,169.105 131.5,171.5C 128.453,168.455 125.787,165.122 123.5,161.5C 125.191,160.136 126.858,158.803 128.5,157.5C 130.05,156.559 131.716,155.893 133.5,155.5 Z"/></g>
<g><path style="opacity:1" fill="#f9fcfc" d="M 229.5,177.5 C 228.232,187.193 231.232,195.36 238.5,202C 241.561,204.035 244.895,205.201 248.5,205.5C 248.5,209.833 248.5,214.167 248.5,218.5C 245.287,218.19 242.287,218.523 239.5,219.5C 239.5,222.5 239.5,225.5 239.5,228.5C 242.5,228.5 245.5,228.5 248.5,228.5C 248.667,261.835 248.5,295.168 248,328.5C 246,326.5 244,324.5 242,322.5C 241.5,313.84 241.334,305.173 241.5,296.5C 241.666,290.824 241.499,285.157 241,279.5C 240.333,278.833 239.667,278.167 239,277.5C 238.825,281.211 238.325,284.878 237.5,288.5C 234.793,287.422 232.126,286.422 229.5,285.5C 229.5,287.167 229.5,288.833 229.5,290.5C 228.252,289.666 227.585,288.333 227.5,286.5C 227.511,284.955 227.844,283.622 228.5,282.5C 230.894,283.015 233.228,283.681 235.5,284.5C 235.56,285.043 235.893,285.376 236.5,285.5C 237.823,275.007 237.823,264.674 236.5,254.5C 232.984,250.646 231.484,245.979 232,240.5C 227.508,236.21 223.008,231.877 218.5,227.5C 216.959,229.204 215.625,231.037 214.5,233C 217.115,237.283 220.115,241.283 223.5,245C 222.35,246.981 221.016,248.814 219.5,250.5C 214.11,245.106 208.444,240.106 202.5,235.5C 199.359,234.679 196.025,234.179 192.5,234C 194.734,231.937 196.734,229.771 198.5,227.5C 203.444,227.398 206.944,225.065 209,220.5C 209.887,203.496 211.053,203.496 212.5,220.5C 214.128,224.057 216.294,224.39 219,221.5C 219.667,216.167 219.667,210.833 219,205.5C 217.669,203.004 215.836,201.004 213.5,199.5C 212.286,198.374 211.286,197.041 210.5,195.5C 212.285,191.994 213.118,188.328 213,184.5C 209.793,183.745 208.293,181.745 208.5,178.5C 208.616,175.14 208.949,171.807 209.5,168.5C 210.165,166.631 210.831,164.631 211.5,162.5C 218.319,165.41 224.985,168.577 231.5,172C 230.536,173.725 229.869,175.559 229.5,177.5 Z"/></g>
<g><path style="opacity:1" fill="#f8fbfb" d="M 257.5,163.5 C 259.986,164.662 262.486,165.996 265,167.5C 265.333,169.047 264.833,170.38 263.5,171.5C 269.373,179.663 268.707,187.163 261.5,194C 245.6,199.284 238.267,193.451 239.5,176.5C 242.43,174.036 242.763,171.37 240.5,168.5C 245.38,164.526 251.046,162.859 257.5,163.5 Z"/></g>
<g><path style="opacity:1" fill="#f8fbfc" d="M 298.5,181.5 C 296.898,183.074 294.898,183.741 292.5,183.5C 293.492,187.482 294.492,191.482 295.5,195.5C 295.058,196.739 294.391,197.739 293.5,198.5C 291.539,200.963 289.372,203.297 287,205.5C 286.333,210.833 286.333,216.167 287,221.5C 289.333,224.167 291.667,224.167 294,221.5C 294.499,216.845 294.666,212.179 294.5,207.5C 295.99,212.597 297.49,217.93 299,223.5C 300.848,226.041 303.348,227.041 306.5,226.5C 308.701,229.021 311.034,231.521 313.5,234C 310.118,234.176 306.785,234.676 303.5,235.5C 303.058,236.739 302.391,237.739 301.5,238.5C 300.448,238.351 299.448,238.517 298.5,239C 294.797,242.367 291.464,246.034 288.5,250C 287.906,250.464 287.239,250.631 286.5,250.5C 285.542,249.038 284.376,247.705 283,246.5C 282.333,245.5 282.333,244.5 283,243.5C 286.349,240.318 289.516,236.985 292.5,233.5C 290.833,231.5 289.167,229.5 287.5,227.5C 283.333,231.833 279.167,236.167 275,240.5C 275.665,246.141 273.998,250.808 270,254.5C 269.333,265.167 269.333,275.833 270,286.5C 272.381,283.326 275.548,281.659 279.5,281.5C 279.665,285.182 279.499,288.848 279,292.5C 278,293.5 277,294.5 276,295.5C 275.5,306.495 275.333,317.495 275.5,328.5C 274.99,331.388 275.656,333.721 277.5,335.5C 276.5,336.833 275.5,338.167 274.5,339.5C 273.504,325.343 273.171,311.01 273.5,296.5C 275.252,294.754 276.585,292.754 277.5,290.5C 277.799,288.396 277.466,286.396 276.5,284.5C 268.769,292.04 265.435,290.04 266.5,278.5C 265.914,278.709 265.414,279.043 265,279.5C 264.667,293.833 264.333,308.167 264,322.5C 261.957,324.208 260.29,326.208 259,328.5C 258.5,295.168 258.333,261.835 258.5,228.5C 261.167,228.5 263.833,228.5 266.5,228.5C 266.5,225.5 266.5,222.5 266.5,219.5C 263.5,219.5 260.5,219.5 257.5,219.5C 257.5,214.833 257.5,210.167 257.5,205.5C 259.786,205.405 261.786,204.738 263.5,203.5C 273.035,199.616 277.702,192.449 277.5,182C 277.548,178.52 276.881,175.187 275.5,172C 281.766,168.179 288.433,165.012 295.5,162.5C 296.435,168.856 297.435,175.19 298.5,181.5 Z"/></g>
<g><path style="opacity:1" fill="#648fac" d="M 123.5,161.5 C 125.787,165.122 128.453,168.455 131.5,171.5C 130.542,172.962 129.376,174.295 128,175.5C 124.395,172.568 121.561,169.068 119.5,165C 120.645,163.598 121.978,162.431 123.5,161.5 Z"/></g>
<g><path style="opacity:1" fill="#d0e6f2" d="M 144.5,164.5 C 147.841,164.656 150.674,165.989 153,168.5C 154.667,168.167 156.333,167.833 158,167.5C 159.188,168.563 159.688,169.897 159.5,171.5C 160.5,171.5 161.5,171.5 162.5,171.5C 162.5,172.5 162.5,173.5 162.5,174.5C 165.5,174.5 168.5,174.5 171.5,174.5C 170.559,176.05 169.893,177.716 169.5,179.5C 165.841,179.851 162.841,178.851 160.5,176.5C 160.539,175.417 160.873,174.417 161.5,173.5C 158.93,172.298 156.43,170.965 154,169.5C 153.153,171.193 152.32,172.86 151.5,174.5C 149.326,174.25 147.659,173.25 146.5,171.5C 147.153,170.193 147.82,168.86 148.5,167.5C 147.099,166.479 145.765,165.479 144.5,164.5 Z"/></g>
<g><path style="opacity:0.997" fill="#f2f7f8" d="M 110.5,171.5 C 114.258,176.435 118.258,181.268 122.5,186C 127.497,189.834 132.83,193.167 138.5,196C 156.328,201.79 174.328,206.957 192.5,211.5C 192.664,214.187 192.497,216.854 192,219.5C 188.278,223.715 184.778,228.048 181.5,232.5C 183.075,240.1 184.242,247.767 185,255.5C 188,259.167 191,262.833 194,266.5C 194.49,267.793 194.657,269.127 194.5,270.5C 189.167,270.5 183.833,270.5 178.5,270.5C 178.717,267.579 178.051,264.913 176.5,262.5C 178.224,262.539 178.557,262.206 177.5,261.5C 174.611,251.389 173.278,241.056 173.5,230.5C 157.325,230.83 141.325,230.496 125.5,229.5C 141.503,229.667 157.503,229.5 173.5,229C 175.202,226.765 176.202,224.265 176.5,221.5C 180.409,220.57 180.909,219.237 178,217.5C 169.07,214.475 159.904,213.142 150.5,213.5C 148.798,210.475 146.131,209.141 142.5,209.5C 137.418,206.456 132.085,203.622 126.5,201C 116.253,195.253 108.587,187.087 103.5,176.5C 105.113,174.912 107.113,173.912 109.5,173.5C 110.298,173.043 110.631,172.376 110.5,171.5 Z"/></g>
<g><path style="opacity:0.996" fill="#f3f7f9" d="M 395.5,171.5 C 395.414,172.496 395.748,173.329 396.5,174C 398.167,174.333 399.833,174.667 401.5,175C 402.022,175.561 402.355,176.228 402.5,177C 393.891,191.596 381.557,201.929 365.5,208C 362.899,208.92 360.232,209.587 357.5,210C 355.937,210.759 354.937,211.926 354.5,213.5C 344,212.848 334.5,214.848 326,219.5C 327.444,221.155 329.278,221.822 331.5,221.5C 331.22,224.272 331.887,226.772 333.5,229C 349.163,229.5 364.83,229.667 380.5,229.5C 372.684,230.492 364.684,230.826 356.5,230.5C 348.5,230.5 340.5,230.5 332.5,230.5C 332.666,237.175 332.5,243.842 332,250.5C 331.181,254.62 329.681,258.454 327.5,262C 328.094,262.464 328.761,262.631 329.5,262.5C 328.847,263.807 328.18,265.14 327.5,266.5C 328.246,267.736 328.579,269.07 328.5,270.5C 322.833,270.5 317.167,270.5 311.5,270.5C 311.343,269.127 311.51,267.793 312,266.5C 315.37,263.465 318.37,260.132 321,256.5C 322.478,247.538 323.145,238.538 323,229.5C 320.705,226.203 318.038,223.203 315,220.5C 314.179,217.446 314.345,214.446 315.5,211.5C 316.417,210.873 317.417,210.539 318.5,210.5C 334.844,205.829 351.177,200.996 367.5,196C 379.524,190.803 388.857,182.637 395.5,171.5 Z"/></g>
<g><path style="opacity:0.004" fill="#fefffe" d="M 49.5,177.5 C 50.8333,178.167 50.8333,178.167 49.5,177.5 Z"/></g>
<g><path style="opacity:1" fill="#0c3d5e" d="M 367.5,124.5 C 366.292,127.694 365.292,131.027 364.5,134.5C 359.505,139.942 354.839,145.775 350.5,152C 351.416,152.374 352.25,152.874 353,153.5C 354.281,152.353 354.614,152.687 354,154.5C 349.345,156.367 344.845,158.367 340.5,160.5C 335.869,161.86 331.036,162.86 326,163.5C 319.547,162.558 313.047,162.225 306.5,162.5C 306.857,168.641 307.857,174.641 309.5,180.5C 309.517,182.565 309.85,184.565 310.5,186.5C 308.058,186.119 307.391,186.786 308.5,188.5C 307.24,189.382 306.074,190.382 305,191.5C 304.23,190.402 303.397,190.402 302.5,191.5C 300.968,188.235 299.635,184.902 298.5,181.5C 297.435,175.19 296.435,168.856 295.5,162.5C 288.433,165.012 281.766,168.179 275.5,172C 276.881,175.187 277.548,178.52 277.5,182C 277.702,192.449 273.035,199.616 263.5,203.5C 260.71,203.778 258.21,203.111 256,201.5C 253.756,203.035 252.089,205.035 251,207.5C 250.823,211.356 250.323,215.023 249.5,218.5C 249.818,213.968 249.485,209.634 248.5,205.5C 244.895,205.201 241.561,204.035 238.5,202C 231.232,195.36 228.232,187.193 229.5,177.5C 230.222,177.918 230.722,178.584 231,179.5C 231.822,176.883 232.322,174.216 232.5,171.5C 236.281,171.296 238.614,172.963 239.5,176.5C 238.267,193.451 245.6,199.284 261.5,194C 268.707,187.163 269.373,179.663 263.5,171.5C 264.833,170.38 265.333,169.047 265,167.5C 262.486,165.996 259.986,164.662 257.5,163.5C 258.552,163.649 259.552,163.483 260.5,163C 257.937,160.816 258.271,158.983 261.5,157.5C 263.771,158.271 265.938,159.271 268,160.5C 270.346,161.503 272.513,161.503 274.5,160.5C 280.641,156.79 287.308,154.29 294.5,153C 308.167,152.667 321.833,152.333 335.5,152C 343.441,151.111 350.275,147.945 356,142.5C 360.619,136.911 364.452,130.911 367.5,124.5 Z"/></g>
<g><path style="opacity:1" fill="#c4deed" d="M 329.5,174.5 C 328.722,175.156 328.056,175.989 327.5,177C 328.233,178.766 328.567,180.599 328.5,182.5C 324.712,183.385 321.046,184.385 317.5,185.5C 315.139,185.674 312.806,186.007 310.5,186.5C 309.85,184.565 309.517,182.565 309.5,180.5C 314.863,180.051 320.196,179.384 325.5,178.5C 324.766,174.56 326.099,173.227 329.5,174.5 Z"/></g>
<g><path style="opacity:1" fill="#042a46" d="M 388.5,127.5 C 389.525,128.374 390.192,129.541 390.5,131C 389.453,132.578 389.453,134.078 390.5,135.5C 393.74,134.427 396.24,132.427 398,129.5C 399.159,133.744 399.992,138.077 400.5,142.5C 399.159,147.852 398.826,153.185 399.5,158.5C 398.968,163.095 397.635,167.429 395.5,171.5C 388.857,182.637 379.524,190.803 367.5,196C 351.177,200.996 334.844,205.829 318.5,210.5C 318.631,209.624 318.298,208.957 317.5,208.5C 315.291,209.106 313.124,209.773 311,210.5C 309.886,214.95 310.72,218.95 313.5,222.5C 313.119,224.707 311.786,226.04 309.5,226.5C 307.677,224.842 306.01,223.009 304.5,221C 303.563,220.308 302.897,220.475 302.5,221.5C 301.778,221.082 301.278,220.416 301,219.5C 300.333,214.167 300.333,208.833 301,203.5C 301.81,201.694 302.976,200.194 304.5,199C 303.129,196.681 302.462,194.181 302.5,191.5C 303.397,190.402 304.23,190.402 305,191.5C 306.074,190.382 307.24,189.382 308.5,188.5C 307.391,186.786 308.058,186.119 310.5,186.5C 312.806,186.007 315.139,185.674 317.5,185.5C 320.379,189.149 321.712,193.482 321.5,198.5C 324.86,198.384 328.193,198.051 331.5,197.5C 330.975,192.4 329.975,187.4 328.5,182.5C 328.567,180.599 328.233,178.766 327.5,177C 328.056,175.989 328.722,175.156 329.5,174.5C 334.367,173.665 337.034,175.665 337.5,180.5C 339.147,185.136 340.813,189.803 342.5,194.5C 345.627,193.436 348.627,192.103 351.5,190.5C 349.449,185.744 347.449,181.077 345.5,176.5C 344.708,175.033 344.708,173.7 345.5,172.5C 349.924,169.154 353.258,169.82 355.5,174.5C 357.979,179.076 360.979,182.909 364.5,186C 365.687,184.981 366.687,183.814 367.5,182.5C 365.166,178.187 362.5,174.187 359.5,170.5C 359.305,166.633 361.305,163.967 365.5,162.5C 368.167,165.833 371.167,168.833 374.5,171.5C 375.562,173.757 377.228,174.923 379.5,175C 382.237,171.933 384.571,168.599 386.5,165C 385.87,163.69 384.87,162.856 383.5,162.5C 380.725,159.395 377.392,157.062 373.5,155.5C 371.571,153.852 369.571,152.185 367.5,150.5C 368.63,147.528 370.63,145.528 373.5,144.5C 374.315,145.837 375.482,146.837 377,147.5C 380.592,140.643 384.426,133.976 388.5,127.5 Z"/></g>
<g><path style="opacity:1" fill="#648eaa" d="M 345.5,176.5 C 347.449,181.077 349.449,185.744 351.5,190.5C 348.627,192.103 345.627,193.436 342.5,194.5C 340.813,189.803 339.147,185.136 337.5,180.5C 340.48,179.677 343.147,178.343 345.5,176.5 Z"/></g>
<g><path style="opacity:1" fill="#6490ac" d="M 359.5,170.5 C 362.5,174.187 365.166,178.187 367.5,182.5C 366.687,183.814 365.687,184.981 364.5,186C 360.979,182.909 357.979,179.076 355.5,174.5C 357.773,174.043 359.106,172.71 359.5,170.5 Z"/></g>
<g><path style="opacity:1" fill="#628ba7" d="M 383.5,162.5 C 384.87,162.856 385.87,163.69 386.5,165C 384.571,168.599 382.237,171.933 379.5,175C 377.228,174.923 375.562,173.757 374.5,171.5C 377.728,168.694 380.728,165.694 383.5,162.5 Z"/></g>
<g><path style="opacity:0.004" fill="#fefffe" d="M 412.5,189.5 C 413.833,190.167 413.833,190.167 412.5,189.5 Z"/></g>
<g><path style="opacity:1" fill="#5e88a3" d="M 328.5,182.5 C 329.975,187.4 330.975,192.4 331.5,197.5C 328.193,198.051 324.86,198.384 321.5,198.5C 321.712,193.482 320.379,189.149 317.5,185.5C 321.046,184.385 324.712,183.385 328.5,182.5 Z"/></g>
<g><path style="opacity:1" fill="#052a45" d="M 128.5,157.5 C 126.858,158.803 125.191,160.136 123.5,161.5C 121.978,162.431 120.645,163.598 119.5,165C 121.561,169.068 124.395,172.568 128,175.5C 129.376,174.295 130.542,172.962 131.5,171.5C 134.861,169.105 137.528,166.105 139.5,162.5C 141.514,162.392 143.18,163.058 144.5,164.5C 145.765,165.479 147.099,166.479 148.5,167.5C 147.82,168.86 147.153,170.193 146.5,171.5C 143.745,175.434 140.745,179.267 137.5,183C 139.249,184.292 141.082,185.458 143,186.5C 145.664,182.343 148.497,178.343 151.5,174.5C 152.32,172.86 153.153,171.193 154,169.5C 156.43,170.965 158.93,172.298 161.5,173.5C 160.873,174.417 160.539,175.417 160.5,176.5C 157.405,181.272 156.072,186.438 156.5,192C 158.871,192.735 161.205,193.568 163.5,194.5C 165.89,189.664 167.89,184.664 169.5,179.5C 169.893,177.716 170.559,176.05 171.5,174.5C 172.833,174.5 174.167,174.5 175.5,174.5C 176.209,175.404 177.209,175.737 178.5,175.5C 178.552,177.903 178.219,180.236 177.5,182.5C 177.012,187.274 176.012,191.94 174.5,196.5C 177.363,197.874 180.363,198.874 183.5,199.5C 185.378,195.365 186.545,191.032 187,186.5C 187.671,185.748 188.504,185.414 189.5,185.5C 191.833,185.5 194.167,185.5 196.5,185.5C 196.5,183.833 196.5,182.167 196.5,180.5C 197.768,178.095 198.435,175.428 198.5,172.5C 199.887,175.053 201.72,177.386 204,179.5C 206.827,177.746 206.994,175.912 204.5,174C 206.604,172.307 208.104,170.14 209,167.5C 209.399,167.728 209.565,168.062 209.5,168.5C 208.949,171.807 208.616,175.14 208.5,178.5C 206.807,185.579 204.474,192.579 201.5,199.5C 202.76,200.382 203.926,201.382 205,202.5C 205.667,208.167 205.667,213.833 205,219.5C 202.999,222.331 200.833,224.997 198.5,227.5C 196.734,229.771 194.734,231.937 192.5,234C 196.025,234.179 199.359,234.679 202.5,235.5C 206.874,239.872 210.874,244.539 214.5,249.5C 214.5,250.5 214.5,251.5 214.5,252.5C 213.178,252.67 212.011,252.337 211,251.5C 212.012,254.341 210.845,255.674 207.5,255.5C 205.139,253.806 203.139,251.806 201.5,249.5C 200.833,248.167 200.167,248.167 199.5,249.5C 197.982,251.681 196.982,254.181 196.5,257C 198.774,259.325 199.941,262.159 200,265.5C 200.333,265.167 200.667,264.833 201,264.5C 201.333,266.5 201.667,268.5 202,270.5C 204.848,271.433 205.014,272.933 202.5,275C 199.655,275.538 196.988,276.538 194.5,278C 182.171,278.5 169.838,278.667 157.5,278.5C 157.472,276.418 158.139,274.584 159.5,273C 171.543,273.15 183.21,272.316 194.5,270.5C 194.657,269.127 194.49,267.793 194,266.5C 191,262.833 188,259.167 185,255.5C 184.242,247.767 183.075,240.1 181.5,232.5C 184.778,228.048 188.278,223.715 192,219.5C 192.497,216.854 192.664,214.187 192.5,211.5C 174.328,206.957 156.328,201.79 138.5,196C 132.83,193.167 127.497,189.834 122.5,186C 118.258,181.268 114.258,176.435 110.5,171.5C 108.892,168.009 107.892,164.342 107.5,160.5C 108.008,157.611 108.675,154.778 109.5,152C 108.275,149.371 108.608,146.871 110.5,144.5C 110.736,145.247 111.07,146.08 111.5,147C 114.146,147.497 116.813,147.664 119.5,147.5C 119.33,148.822 119.663,149.989 120.5,151C 122.218,151.346 123.885,151.846 125.5,152.5C 125.833,151.833 126.167,151.167 126.5,150.5C 127.421,152.777 128.087,155.11 128.5,157.5 Z"/></g>
<g><path style="opacity:1" fill="#608fab" d="M 160.5,176.5 C 162.841,178.851 165.841,179.851 169.5,179.5C 167.89,184.664 165.89,189.664 163.5,194.5C 161.205,193.568 158.871,192.735 156.5,192C 156.072,186.438 157.405,181.272 160.5,176.5 Z"/></g>
<g><path style="opacity:1" fill="#648da7" d="M 177.5,182.5 C 181.593,183.508 185.593,184.508 189.5,185.5C 188.504,185.414 187.671,185.748 187,186.5C 186.545,191.032 185.378,195.365 183.5,199.5C 180.363,198.874 177.363,197.874 174.5,196.5C 176.012,191.94 177.012,187.274 177.5,182.5 Z"/></g>
<g><path style="opacity:1" fill="#c7e1f0" d="M 175.5,174.5 C 176.833,174.5 178.167,174.5 179.5,174.5C 179.33,175.822 179.663,176.989 180.5,178C 185.743,179.478 191.076,180.312 196.5,180.5C 196.5,182.167 196.5,183.833 196.5,185.5C 194.167,185.5 191.833,185.5 189.5,185.5C 185.593,184.508 181.593,183.508 177.5,182.5C 178.219,180.236 178.552,177.903 178.5,175.5C 177.209,175.737 176.209,175.404 175.5,174.5 Z"/></g>
<g><path style="opacity:1" fill="#6593af" d="M 146.5,171.5 C 147.659,173.25 149.326,174.25 151.5,174.5C 148.497,178.343 145.664,182.343 143,186.5C 141.082,185.458 139.249,184.292 137.5,183C 140.745,179.267 143.745,175.434 146.5,171.5 Z"/></g>
<g><path style="opacity:1" fill="#a7c6db" d="M 208.5,178.5 C 208.293,181.745 209.793,183.745 213,184.5C 213.118,188.328 212.285,191.994 210.5,195.5C 211.286,197.041 212.286,198.374 213.5,199.5C 212.509,206.313 212.175,213.313 212.5,220.5C 211.053,203.496 209.887,203.496 209,220.5C 206.944,225.065 203.444,227.398 198.5,227.5C 200.833,224.997 202.999,222.331 205,219.5C 205.667,213.833 205.667,208.167 205,202.5C 203.926,201.382 202.76,200.382 201.5,199.5C 204.474,192.579 206.807,185.579 208.5,178.5 Z"/></g>
<g><path style="opacity:1" fill="#abcce1" d="M 298.5,181.5 C 299.635,184.902 300.968,188.235 302.5,191.5C 302.462,194.181 303.129,196.681 304.5,199C 302.976,200.194 301.81,201.694 301,203.5C 300.333,208.833 300.333,214.167 301,219.5C 301.278,220.416 301.778,221.082 302.5,221.5C 303.833,223.167 305.167,224.833 306.5,226.5C 303.348,227.041 300.848,226.041 299,223.5C 297.49,217.93 295.99,212.597 294.5,207.5C 294.81,204.287 294.477,201.287 293.5,198.5C 294.391,197.739 295.058,196.739 295.5,195.5C 294.492,191.482 293.492,187.482 292.5,183.5C 294.898,183.741 296.898,183.074 298.5,181.5 Z"/></g>
<g><path style="opacity:0.004" fill="#fefffe" d="M 436.5,200.5 C 437.833,201.167 437.833,201.167 436.5,200.5 Z"/></g>
<g><path style="opacity:1" fill="#0c314e" d="M 293.5,198.5 C 294.477,201.287 294.81,204.287 294.5,207.5C 294.666,212.179 294.499,216.845 294,221.5C 291.667,224.167 289.333,224.167 287,221.5C 286.333,216.167 286.333,210.833 287,205.5C 289.372,203.297 291.539,200.963 293.5,198.5 Z"/></g>
<g><path style="opacity:1" fill="#092e4d" d="M 363.5,210.5 C 366.459,210.35 368.959,211.35 371,213.5C 372.042,216.804 370.875,218.971 367.5,220C 355.659,220.169 343.993,220.669 332.5,221.5C 332.167,221.5 331.833,221.5 331.5,221.5C 329.278,221.822 327.444,221.155 326,219.5C 334.5,214.848 344,212.848 354.5,213.5C 358.104,213.951 361.104,212.951 363.5,210.5 Z"/></g>
<g><path style="opacity:1" fill="#133453" d="M 142.5,209.5 C 144.073,212.893 146.74,214.226 150.5,213.5C 159.904,213.142 169.07,214.475 178,217.5C 180.909,219.237 180.409,220.57 176.5,221.5C 163.13,221.43 149.797,221.597 136.5,222C 133.009,220.179 131.843,217.346 133,213.5C 135.15,210.037 138.316,208.704 142.5,209.5 Z"/></g>
<g><path style="opacity:1" fill="#a6bac6" d="M 248.5,205.5 C 249.485,209.634 249.818,213.968 249.5,218.5C 246.375,219.479 243.042,219.813 239.5,219.5C 242.287,218.523 245.287,218.19 248.5,218.5C 248.5,214.167 248.5,209.833 248.5,205.5 Z"/></g>
<g><path style="opacity:1" fill="#07304f" d="M 213.5,199.5 C 215.836,201.004 217.669,203.004 219,205.5C 219.667,210.833 219.667,216.167 219,221.5C 216.294,224.39 214.128,224.057 212.5,220.5C 212.175,213.313 212.509,206.313 213.5,199.5 Z"/></g>
<g><path style="opacity:1" fill="#304860" d="M 363.5,210.5 C 370.012,208.167 373.512,210.5 374,217.5C 373.167,219.667 371.667,221.167 369.5,222C 357.203,221.606 344.87,221.439 332.5,221.5C 343.993,220.669 355.659,220.169 367.5,220C 370.875,218.971 372.042,216.804 371,213.5C 368.959,211.35 366.459,210.35 363.5,210.5 Z"/></g>
<g><path style="opacity:1" fill="#0f3b5b" d="M 384.5,238.5 C 368.008,237.503 351.342,237.17 334.5,237.5C 334.5,235.5 334.5,233.5 334.5,231.5C 342.019,231.825 349.352,231.492 356.5,230.5C 364.684,230.826 372.684,230.492 380.5,229.5C 380.5,227.167 380.5,224.833 380.5,222.5C 389.525,222.832 398.525,222.498 407.5,221.5C 414.372,211.112 422.372,210.112 431.5,218.5C 435.753,226.658 434.086,233.492 426.5,239C 418.221,241.483 411.887,239.149 407.5,232C 401.175,231.5 394.842,231.334 388.5,231.5C 388.5,233.833 388.5,236.167 388.5,238.5C 387.167,238.5 385.833,238.5 384.5,238.5 Z M 417.5,222.5 C 424.158,221.344 426.158,223.844 423.5,230C 416.75,231.469 414.75,228.969 417.5,222.5 Z"/></g>
<g><path style="opacity:0.004" fill="#fefffe" d="M 340.5,222.5 C 341.833,223.167 341.833,223.167 340.5,222.5 Z"/></g>
<g><path style="opacity:1" fill="#0e3756" d="M 125.5,229.5 C 141.325,230.496 157.325,230.83 173.5,230.5C 173.278,241.056 174.611,251.389 177.5,261.5C 159.5,261.5 141.5,261.5 123.5,261.5C 123.5,263.167 123.5,264.833 123.5,266.5C 117.119,273.147 110.619,273.147 104,266.5C 99.7747,258.511 101.608,252.344 109.5,248C 115.985,246.09 120.985,247.923 124.5,253.5C 137.99,254.496 151.656,254.829 165.5,254.5C 165.821,248.974 165.488,243.64 164.5,238.5C 148.798,239.089 133.131,239.089 117.5,238.5C 117.5,235.833 117.5,233.167 117.5,230.5C 110.416,229.874 103.75,230.541 97.5,232.5C 96.4086,235.428 94.4086,237.594 91.5,239C 76.5637,241.397 70.3971,235.231 73,220.5C 77.5832,213.813 83.7499,211.646 91.5,214C 94.6945,215.695 97.0278,218.195 98.5,221.5C 107.475,222.498 116.475,222.832 125.5,222.5C 125.5,224.833 125.5,227.167 125.5,229.5 Z M 85.5,221.5 C 90.1147,223.206 91.1147,226.04 88.5,230C 83.5023,231.33 81.3357,229.496 82,224.5C 82.985,223.186 84.1516,222.186 85.5,221.5 Z M 112.5,256.5 C 116.161,256.35 117.161,257.85 115.5,261C 114.207,261.49 112.873,261.657 111.5,261.5C 111.366,259.708 111.699,258.042 112.5,256.5 Z"/></g>
<g><path style="opacity:0.455" fill="#68859a" d="M 117.5,238.5 C 116.532,236.393 116.198,234.059 116.5,231.5C 110.077,231.209 103.744,231.542 97.5,232.5C 103.75,230.541 110.416,229.874 117.5,230.5C 117.5,233.167 117.5,235.833 117.5,238.5 Z"/></g>
<g><path style="opacity:0.004" fill="#fefffe" d="M 14.5,231.5 C 15.8333,232.167 15.8333,232.167 14.5,231.5 Z"/></g>
<g><path style="opacity:1" fill="#032847" d="M 263.5,203.5 C 261.786,204.738 259.786,205.405 257.5,205.5C 257.5,210.167 257.5,214.833 257.5,219.5C 260.5,219.5 263.5,219.5 266.5,219.5C 266.5,222.5 266.5,225.5 266.5,228.5C 263.833,228.5 261.167,228.5 258.5,228.5C 257.833,228.5 257.5,228.833 257.5,229.5C 256.977,250.085 256.144,270.751 255,291.5C 253.827,284.563 253.16,277.563 253,270.5C 252.667,270.833 252.333,271.167 252,271.5C 251.956,257.295 251.123,243.295 249.5,229.5C 249.5,228.833 249.167,228.5 248.5,228.5C 245.5,228.5 242.5,228.5 239.5,228.5C 239.5,225.5 239.5,222.5 239.5,219.5C 243.042,219.813 246.375,219.479 249.5,218.5C 250.323,215.023 250.823,211.356 251,207.5C 252.089,205.035 253.756,203.035 256,201.5C 258.21,203.111 260.71,203.778 263.5,203.5 Z"/></g>
<g><path style="opacity:0.004" fill="#fefffe" d="M 3.5,243.5 C 4.83333,244.167 4.83333,244.167 3.5,243.5 Z"/></g>
<g><path style="opacity:1" fill="#b2c8d8" d="M 202.5,235.5 C 208.444,240.106 214.11,245.106 219.5,250.5C 219.217,251.289 218.717,251.956 218,252.5C 216.961,251.29 215.794,250.29 214.5,249.5C 210.874,244.539 206.874,239.872 202.5,235.5 Z"/></g>
<g><path style="opacity:0.004" fill="#fefffe" d="M 62.5,252.5 C 63.8333,253.167 63.8333,253.167 62.5,252.5 Z"/></g>
<g><path style="opacity:0.392" fill="#84a1b0" d="M 164.5,238.5 C 165.488,243.64 165.821,248.974 165.5,254.5C 151.656,254.829 137.99,254.496 124.5,253.5C 137.833,253.5 151.167,253.5 164.5,253.5C 164.5,248.5 164.5,243.5 164.5,238.5 Z"/></g>
<g><path style="opacity:1" fill="#728390" d="M 201.5,249.5 C 200.527,251.948 200.194,254.615 200.5,257.5C 199.527,255.052 199.194,252.385 199.5,249.5C 200.167,248.167 200.833,248.167 201.5,249.5 Z"/></g>
<g><path style="opacity:1" fill="#153856" d="M 356.5,230.5 C 349.352,231.492 342.019,231.825 334.5,231.5C 334.5,233.5 334.5,235.5 334.5,237.5C 351.342,237.17 368.008,237.503 384.5,238.5C 370.496,238.333 356.496,238.5 342.5,239C 341.531,243.737 341.197,248.57 341.5,253.5C 354.85,253.833 368.183,253.499 381.5,252.5C 388.235,244.588 395.069,244.588 402,252.5C 406.212,260.91 404.045,267.076 395.5,271C 387.745,272.794 382.745,269.961 380.5,262.5C 363.5,262.5 346.5,262.5 329.5,262.5C 328.761,262.631 328.094,262.464 327.5,262C 329.681,258.454 331.181,254.62 332,250.5C 332.5,243.842 332.666,237.175 332.5,230.5C 340.5,230.5 348.5,230.5 356.5,230.5 Z M 390.5,256.5 C 394.161,256.35 395.161,257.85 393.5,261C 388.522,261.864 387.522,260.364 390.5,256.5 Z"/></g>
<g><path style="opacity:1" fill="#06263f" d="M 236.5,254.5 C 236.827,264.681 236.494,274.681 235.5,284.5C 233.228,283.681 230.894,283.015 228.5,282.5C 224.822,277.638 220.488,273.805 215.5,271C 214.426,271.739 213.759,272.739 213.5,274C 215.327,276.658 217.327,279.158 219.5,281.5C 220.328,286.132 220.828,290.798 221,295.5C 227.015,299.591 229.181,305.258 227.5,312.5C 226.691,313.469 225.691,314.302 224.5,315C 225.956,315.423 226.456,316.256 226,317.5C 224.488,316.743 223.154,315.743 222,314.5C 221.833,315.167 221.667,315.833 221.5,316.5C 222.322,318.687 223.822,320.353 226,321.5C 226.667,322.167 226.667,322.833 226,323.5C 224.981,322.313 223.814,321.313 222.5,320.5C 222.912,321.782 222.246,322.782 220.5,323.5C 217.91,323.082 215.577,322.082 213.5,320.5C 215.795,319.864 217.461,318.531 218.5,316.5C 217.527,312.843 217.361,309.177 218,305.5C 216.951,303.893 215.451,303.227 213.5,303.5C 212.833,314.167 212.167,314.167 211.5,303.5C 210.178,303.67 209.011,303.337 208,302.5C 207.667,303.5 207.333,304.5 207,305.5C 206.303,297.334 205.469,289.334 204.5,281.5C 204.158,280.662 203.492,280.328 202.5,280.5C 193.887,279.558 185.221,279.225 176.5,279.5C 169.492,279.666 162.492,279.5 155.5,279C 152.626,275.949 152.959,273.282 156.5,271C 163.826,270.5 171.159,270.334 178.5,270.5C 183.833,270.5 189.167,270.5 194.5,270.5C 183.21,272.316 171.543,273.15 159.5,273C 158.139,274.584 157.472,276.418 157.5,278.5C 169.838,278.667 182.171,278.5 194.5,278C 196.988,276.538 199.655,275.538 202.5,275C 205.014,272.933 204.848,271.433 202,270.5C 201.667,268.5 201.333,266.5 201,264.5C 200.667,264.833 200.333,265.167 200,265.5C 199.941,262.159 198.774,259.325 196.5,257C 196.982,254.181 197.982,251.681 199.5,249.5C 199.194,252.385 199.527,255.052 200.5,257.5C 200.953,258.458 201.619,259.292 202.5,260C 205.5,260.667 208.5,260.667 211.5,260C 209.959,258.629 208.625,257.129 207.5,255.5C 210.845,255.674 212.012,254.341 211,251.5C 212.011,252.337 213.178,252.67 214.5,252.5C 214.5,251.5 214.5,250.5 214.5,249.5C 215.794,250.29 216.961,251.29 218,252.5C 218.717,251.956 219.217,251.289 219.5,250.5C 221.016,248.814 222.35,246.981 223.5,245C 220.115,241.283 217.115,237.283 214.5,233C 215.625,231.037 216.959,229.204 218.5,227.5C 223.008,231.877 227.508,236.21 232,240.5C 231.484,245.979 232.984,250.646 236.5,254.5 Z"/></g>
<g><path style="opacity:1" fill="#f0fafb" d="M 201.5,249.5 C 203.139,251.806 205.139,253.806 207.5,255.5C 208.625,257.129 209.959,258.629 211.5,260C 208.5,260.667 205.5,260.667 202.5,260C 201.619,259.292 200.953,258.458 200.5,257.5C 200.194,254.615 200.527,251.948 201.5,249.5 Z"/></g>
<g><path style="opacity:1" fill="#83949f" d="M 248.5,228.5 C 249.167,228.5 249.5,228.833 249.5,229.5C 249.667,263.835 249.5,298.168 249,332.5C 246.568,329.312 243.901,326.312 241,323.5C 240.5,314.506 240.334,305.506 240.5,296.5C 240.833,296.5 241.167,296.5 241.5,296.5C 241.334,305.173 241.5,313.84 242,322.5C 244,324.5 246,326.5 248,328.5C 248.5,295.168 248.667,261.835 248.5,228.5 Z"/></g>
<g><path style="opacity:0.518" fill="#597184" d="M 177.5,261.5 C 178.557,262.206 178.224,262.539 176.5,262.5C 159.487,262.167 142.487,262.501 125.5,263.5C 125.058,264.739 124.391,265.739 123.5,266.5C 123.5,264.833 123.5,263.167 123.5,261.5C 141.5,261.5 159.5,261.5 177.5,261.5 Z"/></g>
<g><path style="opacity:1" fill="#072840" d="M 318.5,210.5 C 317.417,210.539 316.417,210.873 315.5,211.5C 314.345,214.446 314.179,217.446 315,220.5C 318.038,223.203 320.705,226.203 323,229.5C 323.145,238.538 322.478,247.538 321,256.5C 318.37,260.132 315.37,263.465 312,266.5C 311.51,267.793 311.343,269.127 311.5,270.5C 317.167,270.5 322.833,270.5 328.5,270.5C 335.841,270.334 343.174,270.5 350.5,271C 352.396,272.808 352.896,274.975 352,277.5C 343.099,279.456 333.932,280.122 324.5,279.5C 317.442,279.203 310.442,279.536 303.5,280.5C 302.667,292.152 302.167,303.819 302,315.5C 301.292,316.381 300.458,317.047 299.5,317.5C 301.187,304.744 300.687,292.077 298,279.5C 297.25,280.126 296.416,280.626 295.5,281C 295.833,281.333 296.167,281.667 296.5,282C 295.773,283.399 295.273,284.899 295,286.5C 294.552,284.776 293.718,284.109 292.5,284.5C 293.939,282.657 293.772,280.99 292,279.5C 289.967,282.03 287.8,284.363 285.5,286.5C 285.343,285.127 285.51,283.793 286,282.5C 288.872,279.963 291.372,277.13 293.5,274C 292.213,272.59 291.046,271.09 290,269.5C 285.918,273.076 282.418,277.076 279.5,281.5C 275.548,281.659 272.381,283.326 270,286.5C 269.333,275.833 269.333,265.167 270,254.5C 273.998,250.808 275.665,246.141 275,240.5C 279.167,236.167 283.333,231.833 287.5,227.5C 289.167,229.5 290.833,231.5 292.5,233.5C 289.516,236.985 286.349,240.318 283,243.5C 282.333,244.5 282.333,245.5 283,246.5C 284.376,247.705 285.542,249.038 286.5,250.5C 287.002,252.085 288.002,252.585 289.5,252C 293.337,247.331 297.337,242.831 301.5,238.5C 302.391,237.739 303.058,236.739 303.5,235.5C 306.785,234.676 310.118,234.176 313.5,234C 311.034,231.521 308.701,229.021 306.5,226.5C 305.167,224.833 303.833,223.167 302.5,221.5C 302.897,220.475 303.563,220.308 304.5,221C 306.01,223.009 307.677,224.842 309.5,226.5C 311.786,226.04 313.119,224.707 313.5,222.5C 310.72,218.95 309.886,214.95 311,210.5C 313.124,209.773 315.291,209.106 317.5,208.5C 318.298,208.957 318.631,209.624 318.5,210.5 Z"/></g>
<g><path style="opacity:1" fill="#c7d8e2" d="M 279.5,256.5 C 285.086,261.931 284.586,266.931 278,271.5C 276.955,266.215 277.455,261.215 279.5,256.5 Z"/></g>
<g><path style="opacity:1" fill="#f0f8fb" d="M 304.5,249.5 C 305.473,251.948 305.806,254.615 305.5,257.5C 305.047,258.458 304.381,259.292 303.5,260C 300.833,260.667 298.167,260.667 295.5,260C 298.389,256.376 301.389,252.876 304.5,249.5 Z"/></g>
<g><path style="opacity:1" fill="#7b8c9b" d="M 304.5,249.5 C 304.56,248.957 304.893,248.624 305.5,248.5C 306.803,251.645 306.803,254.645 305.5,257.5C 305.806,254.615 305.473,251.948 304.5,249.5 Z"/></g>
<g><path style="opacity:1" fill="#b6cfde" d="M 301.5,238.5 C 297.337,242.831 293.337,247.331 289.5,252C 288.002,252.585 287.002,252.085 286.5,250.5C 287.239,250.631 287.906,250.464 288.5,250C 291.464,246.034 294.797,242.367 298.5,239C 299.448,238.517 300.448,238.351 301.5,238.5 Z"/></g>
<g><path style="opacity:1" fill="#e3f0f5" d="M 225.5,257.5 C 226.496,257.414 227.329,257.748 228,258.5C 228.667,262.833 228.667,267.167 228,271.5C 223.088,267.53 222.255,262.863 225.5,257.5 Z"/></g>
<g><path style="opacity:1" fill="#708491" d="M 236.5,254.5 C 237.823,264.674 237.823,275.007 236.5,285.5C 235.893,285.376 235.56,285.043 235.5,284.5C 236.494,274.681 236.827,264.681 236.5,254.5 Z"/></g>
<g><path style="opacity:1" fill="#153654" d="M 138.5,269.5 C 146.896,271.117 148.563,275.283 143.5,282C 136.22,283.719 133.053,280.885 134,273.5C 134.907,271.391 136.407,270.058 138.5,269.5 Z"/></g>
<g><path style="opacity:0.004" fill="#fefffe" d="M 391.5,275.5 C 392.833,276.167 392.833,276.167 391.5,275.5 Z"/></g>
<g><path style="opacity:1" fill="#183653" d="M 364.5,269.5 C 371.088,269.657 373.588,272.99 372,279.5C 367.601,283.654 363.601,283.321 360,278.5C 359.377,274.412 360.877,271.412 364.5,269.5 Z"/></g>
<g><path style="opacity:0.998" fill="#f1f5f7" d="M 176.5,279.5 C 185.221,279.225 193.887,279.558 202.5,280.5C 203.147,292.265 203.814,303.932 204.5,315.5C 206.795,318.297 209.295,320.964 212,323.5C 212.5,330.492 212.666,337.492 212.5,344.5C 217.447,343.628 221.613,344.961 225,348.5C 225.5,355.826 225.666,363.159 225.5,370.5C 222.813,370.664 220.146,370.497 217.5,370C 216.645,367.564 215.979,365.064 215.5,362.5C 216.477,359.713 216.81,356.713 216.5,353.5C 211.5,353.5 206.5,353.5 201.5,353.5C 203.157,350.911 203.491,348.244 202.5,345.5C 202.5,339.833 202.5,334.167 202.5,328.5C 199.5,328.5 196.5,328.5 193.5,328.5C 195.292,327.691 197.292,327.191 199.5,327C 197.768,325.028 196.435,322.861 195.5,320.5C 195.5,317.5 195.5,314.5 195.5,311.5C 194.5,311.5 193.5,311.5 192.5,311.5C 193.388,308.946 193.721,306.279 193.5,303.5C 187.974,303.821 182.64,303.488 177.5,302.5C 183.5,302.5 189.5,302.5 195.5,302.5C 195.5,297.833 195.5,293.167 195.5,288.5C 189.5,288.5 183.5,288.5 177.5,288.5C 179.015,285.263 178.681,282.263 176.5,279.5 Z"/></g>
<g><path style="opacity:0.996" fill="#f5f8f9" d="M 324.5,279.5 C 323.167,282.167 323.167,284.833 324.5,287.5C 319.833,287.5 315.167,287.5 310.5,287.5C 309.887,293.271 310.554,298.604 312.5,303.5C 312.279,306.279 312.612,308.946 313.5,311.5C 311.612,313.988 310.945,316.988 311.5,320.5C 309.8,322.21 308.467,324.21 307.5,326.5C 307.863,327.183 308.196,327.85 308.5,328.5C 306.833,328.5 305.167,328.5 303.5,328.5C 303.5,333.833 303.5,339.167 303.5,344.5C 303.5,345.167 303.833,345.5 304.5,345.5C 302.69,348.93 303.357,351.597 306.5,353.5C 300.833,353.5 295.167,353.5 289.5,353.5C 288.945,357.012 289.612,360.012 291.5,362.5C 289.774,364.82 289.107,367.487 289.5,370.5C 286.391,370.264 283.391,370.597 280.5,371.5C 280.334,363.826 280.5,356.159 281,348.5C 284.735,344.904 289.235,343.571 294.5,344.5C 294.5,337.5 294.5,330.5 294.5,323.5C 296.514,321.817 298.18,319.817 299.5,317.5C 300.458,317.047 301.292,316.381 302,315.5C 302.167,303.819 302.667,292.152 303.5,280.5C 310.442,279.536 317.442,279.203 324.5,279.5 Z"/></g>
<g><path style="opacity:0.004" fill="#fefffe" d="M 71.5,282.5 C 72.8333,283.167 72.8333,283.167 71.5,282.5 Z"/></g>
<g><path style="opacity:0.004" fill="#fefffe" d="M 364.5,287.5 C 365.833,288.167 365.833,288.167 364.5,287.5 Z"/></g>
<g><path style="opacity:1" fill="#c4dbe9" d="M 241.5,296.5 C 241.167,296.5 240.833,296.5 240.5,296.5C 238.704,295.207 237.037,293.707 235.5,292C 233.564,291.187 231.564,290.687 229.5,290.5C 229.5,288.833 229.5,287.167 229.5,285.5C 232.126,286.422 234.793,287.422 237.5,288.5C 238.325,284.878 238.825,281.211 239,277.5C 239.667,278.167 240.333,278.833 241,279.5C 241.499,285.157 241.666,290.824 241.5,296.5 Z"/></g>
<g><path style="opacity:1" fill="#082946" d="M 177.5,288.5 C 183.5,288.5 189.5,288.5 195.5,288.5C 195.5,293.167 195.5,297.833 195.5,302.5C 189.5,302.5 183.5,302.5 177.5,302.5C 177.5,297.833 177.5,293.167 177.5,288.5 Z"/></g>
<g><path style="opacity:1" fill="#04263f" d="M 328.5,288.5 C 328.5,293.167 328.5,297.833 328.5,302.5C 322.833,302.5 317.167,302.5 311.5,302.5C 311.5,297.833 311.5,293.167 311.5,288.5C 317.167,288.5 322.833,288.5 328.5,288.5 Z"/></g>
<g><path style="opacity:1" fill="#a9c8db" d="M 285.5,286.5 C 285.665,289.518 285.498,292.518 285,295.5C 281.534,298.432 279.701,302.098 279.5,306.5C 279.192,312.425 279.525,318.259 280.5,324C 279.695,325.113 279.028,326.279 278.5,327.5C 277.391,327.557 276.391,327.89 275.5,328.5C 275.333,317.495 275.5,306.495 276,295.5C 277,294.5 278,293.5 279,292.5C 279.499,288.848 279.665,285.182 279.5,281.5C 282.418,277.076 285.918,273.076 290,269.5C 291.046,271.09 292.213,272.59 293.5,274C 291.372,277.13 288.872,279.963 286,282.5C 285.51,283.793 285.343,285.127 285.5,286.5 Z"/></g>
<g><path style="opacity:1" fill="#a5b6c3" d="M 324.5,287.5 C 326.099,287.232 327.432,287.566 328.5,288.5C 322.833,288.5 317.167,288.5 311.5,288.5C 311.5,293.167 311.5,297.833 311.5,302.5C 317.167,302.5 322.833,302.5 328.5,302.5C 323.36,303.488 318.026,303.821 312.5,303.5C 310.554,298.604 309.887,293.271 310.5,287.5C 315.167,287.5 319.833,287.5 324.5,287.5 Z"/></g>
<g><path style="opacity:1" fill="#12314c" d="M 162.5,292.5 C 168.356,292.854 170.523,295.854 169,301.5C 163.927,305.864 160.427,304.864 158.5,298.5C 158.67,295.674 160.003,293.674 162.5,292.5 Z"/></g>
<g><path style="opacity:1" fill="#b6bec6" d="M 202.5,280.5 C 203.492,280.328 204.158,280.662 204.5,281.5C 204.5,292.833 204.5,304.167 204.5,315.5C 203.814,303.932 203.147,292.265 202.5,280.5 Z"/></g>
<g><path style="opacity:1" fill="#163550" d="M 423.5,311.5 C 414.334,314.415 407.667,311.581 403.5,303C 389.504,302.5 375.504,302.333 361.5,302.5C 360.8,308.771 360.133,315.771 359.5,323.5C 358.604,324.506 357.938,324.506 357.5,323.5C 359.748,322.676 359.914,321.676 358,320.5C 357.667,315.167 357.333,309.833 357,304.5C 356.667,306.833 356.333,309.167 356,311.5C 354.67,326.829 353.837,342.829 353.5,359.5C 352.169,337.764 352.169,315.931 353.5,294C 370.5,293.667 387.5,293.333 404.5,293C 408.525,285.912 414.525,283.579 422.5,286C 432.737,294.143 433.07,302.643 423.5,311.5 Z M 414.5,294.5 C 420.545,294.029 422.545,296.529 420.5,302C 412.786,304.118 410.786,301.618 414.5,294.5 Z"/></g>
<g><path style="opacity:1" fill="#cad7e1" d="M 258.5,228.5 C 258.333,261.835 258.5,295.168 259,328.5C 260.29,326.208 261.957,324.208 264,322.5C 264.333,308.167 264.667,293.833 265,279.5C 265.414,279.043 265.914,278.709 266.5,278.5C 265.435,290.04 268.769,292.04 276.5,284.5C 277.466,286.396 277.799,288.396 277.5,290.5C 272.458,290.015 268.624,292.015 266,296.5C 265.667,305.5 265.333,314.5 265,323.5C 262.667,326.167 260.333,328.833 258,331.5C 257.5,297.502 257.333,263.502 257.5,229.5C 257.5,228.833 257.833,228.5 258.5,228.5 Z"/></g>
<g><path style="opacity:1" fill="#b2cddf" d="M 228.5,282.5 C 227.844,283.622 227.511,284.955 227.5,286.5C 227.585,288.333 228.252,289.666 229.5,290.5C 229.833,291.167 230.167,291.833 230.5,292.5C 231.764,304.95 231.764,317.617 230.5,330.5C 229.797,328.284 228.464,326.451 226.5,325C 227.464,320.934 227.797,316.767 227.5,312.5C 229.181,305.258 227.015,299.591 221,295.5C 220.828,290.798 220.328,286.132 219.5,281.5C 217.327,279.158 215.327,276.658 213.5,274C 213.759,272.739 214.426,271.739 215.5,271C 220.488,273.805 224.822,277.638 228.5,282.5 Z"/></g>
<g><path style="opacity:1" fill="#25405b" d="M 340.5,292.5 C 346.356,292.854 348.523,295.854 347,301.5C 344.581,304.638 341.747,305.138 338.5,303C 335.602,298.766 336.269,295.266 340.5,292.5 Z"/></g>
<g><path style="opacity:1" fill="#14314b" d="M 152.5,359.5 C 152.667,346.496 152.5,333.496 152,320.5C 151.667,323.833 151.333,327.167 151,330.5C 150.586,330.043 150.086,329.709 149.5,329.5C 147.564,322.964 147.064,316.298 148,309.5C 150.537,310.507 152.037,309.507 152.5,306.5C 152,304.5 151.5,302.5 151,300.5C 149.95,295.723 148.117,295.39 145.5,299.5C 145.709,300.086 146.043,300.586 146.5,301C 145.843,312.265 145.177,323.431 144.5,334.5C 144.5,323.833 144.5,313.167 144.5,302.5C 137.508,301.834 130.341,301.5 123,301.5C 115.467,301.503 108.301,302.169 101.5,303.5C 97.5528,311.765 91.2194,314.265 82.5,311C 72.7365,301.707 73.4032,293.374 84.5,286C 91.9031,283.795 97.5698,285.961 101.5,292.5C 118.821,293.5 136.154,293.833 153.5,293.5C 153.831,315.673 153.497,337.673 152.5,359.5 Z M 87.5,294.5 C 92.4943,294.329 94.3276,296.662 93,301.5C 90.6667,304.167 88.3333,304.167 86,301.5C 85.1668,298.829 85.6668,296.496 87.5,294.5 Z"/></g>
<g><path style="opacity:0.652" fill="#40576c" d="M 144.5,302.5 C 130.088,302.184 115.755,302.518 101.5,303.5C 108.301,302.169 115.467,301.503 123,301.5C 130.341,301.5 137.508,301.834 144.5,302.5 Z"/></g>
<g><path style="opacity:0.004" fill="#fefffe" d="M 2.5,307.5 C 3.83333,308.167 3.83333,308.167 2.5,307.5 Z"/></g>
<g><path style="opacity:0.004" fill="#fefffe" d="M 380.5,308.5 C 381.833,309.167 381.833,309.167 380.5,308.5 Z"/></g>
<g><path style="opacity:0.004" fill="#fefffe" d="M 423.5,311.5 C 424.833,312.167 424.833,312.167 423.5,311.5 Z"/></g>
<g><path style="opacity:1" fill="#e5f4fb" d="M 230.5,292.5 C 231.122,293.627 231.955,294.627 233,295.5C 233.5,304.16 233.666,312.827 233.5,321.5C 233.666,327.842 233.5,334.175 233,340.5C 232.051,338.907 230.885,337.574 229.5,336.5C 229.789,334.475 230.122,332.475 230.5,330.5C 231.764,317.617 231.764,304.95 230.5,292.5 Z"/></g>
<g><path style="opacity:1" fill="#566b8c" d="M 227.5,312.5 C 227.797,316.767 227.464,320.934 226.5,325C 228.464,326.451 229.797,328.284 230.5,330.5C 230.122,332.475 229.789,334.475 229.5,336.5C 227.175,333.846 224.508,331.512 221.5,329.5C 221.723,328.033 222.056,326.533 222.5,325C 221.956,324.283 221.289,323.783 220.5,323.5C 222.246,322.782 222.912,321.782 222.5,320.5C 223.814,321.313 224.981,322.313 226,323.5C 226.667,322.833 226.667,322.167 226,321.5C 223.822,320.353 222.322,318.687 221.5,316.5C 221.667,315.833 221.833,315.167 222,314.5C 223.154,315.743 224.488,316.743 226,317.5C 226.456,316.256 225.956,315.423 224.5,315C 225.691,314.302 226.691,313.469 227.5,312.5 Z"/></g>
<g><path style="opacity:1" fill="#021e35" d="M 249.5,229.5 C 251.123,243.295 251.956,257.295 252,271.5C 252.333,271.167 252.667,270.833 253,270.5C 253.16,277.563 253.827,284.563 255,291.5C 256.144,270.751 256.977,250.085 257.5,229.5C 257.333,263.502 257.5,297.502 258,331.5C 260.333,328.833 262.667,326.167 265,323.5C 265.333,314.5 265.667,305.5 266,296.5C 268.624,292.015 272.458,290.015 277.5,290.5C 276.585,292.754 275.252,294.754 273.5,296.5C 272.174,311.005 272.174,325.672 273.5,340.5C 274.107,340.376 274.44,340.043 274.5,339.5C 275.5,338.167 276.5,336.833 277.5,335.5C 279.814,333.523 282.147,331.523 284.5,329.5C 283.91,328.201 282.91,327.368 281.5,327C 282.381,326.292 283.047,325.458 283.5,324.5C 284.376,324.631 285.043,324.298 285.5,323.5C 284.359,322.575 284.359,321.741 285.5,321C 283.009,320.374 283.009,319.541 285.5,318.5C 283.355,317.318 283.355,315.818 285.5,314C 283.109,313.309 283.109,312.309 285.5,311C 284.5,310 283.5,309 282.5,308C 284.616,306.829 285.282,305.329 284.5,303.5C 282.64,304.26 280.973,305.26 279.5,306.5C 279.701,302.098 281.534,298.432 285,295.5C 285.498,292.518 285.665,289.518 285.5,286.5C 287.8,284.363 289.967,282.03 292,279.5C 293.772,280.99 293.939,282.657 292.5,284.5C 293.718,284.109 294.552,284.776 295,286.5C 295.273,284.899 295.773,283.399 296.5,282C 296.167,281.667 295.833,281.333 295.5,281C 296.416,280.626 297.25,280.126 298,279.5C 300.687,292.077 301.187,304.744 299.5,317.5C 298.18,319.817 296.514,321.817 294.5,323.5C 293.542,323.953 292.708,324.619 292,325.5C 291.786,330.885 291.286,336.219 290.5,341.5C 285.743,341.768 281.576,343.435 278,346.5C 277.667,346.167 277.333,345.833 277,345.5C 276.632,346.91 275.799,347.91 274.5,348.5C 273.376,346.631 272.543,344.631 272,342.5C 270.48,345.488 270.314,348.488 271.5,351.5C 267.652,351.311 263.985,351.311 260.5,351.5C 259.671,356.802 259.171,362.136 259,367.5C 258.193,361.584 258.359,355.75 259.5,350C 258.906,349.536 258.239,349.369 257.5,349.5C 255.855,350.479 254.521,351.812 253.5,353.5C 251.803,352.636 250.637,351.303 250,349.5C 249.501,354.489 249.334,359.489 249.5,364.5C 249.666,371.841 249.5,379.174 249,386.5C 247.955,385.627 247.122,384.627 246.5,383.5C 247.239,383.631 247.906,383.464 248.5,383C 248.212,380.762 246.878,378.929 244.5,377.5C 247.071,369.065 248.071,360.398 247.5,351.5C 244.167,351.5 240.833,351.5 237.5,351.5C 237.421,349.334 236.754,347.334 235.5,345.5C 235.919,344.328 236.585,343.328 237.5,342.5C 236.833,342.167 236.167,341.833 235.5,341.5C 237.262,337.998 237.762,334.332 237,330.5C 236.683,332.301 236.016,332.634 235,331.5C 234.821,327.975 234.321,324.641 233.5,321.5C 233.666,312.827 233.5,304.16 233,295.5C 231.955,294.627 231.122,293.627 230.5,292.5C 230.167,291.833 229.833,291.167 229.5,290.5C 231.564,290.687 233.564,291.187 235.5,292C 237.037,293.707 238.704,295.207 240.5,296.5C 240.334,305.506 240.5,314.506 241,323.5C 243.901,326.312 246.568,329.312 249,332.5C 249.5,298.168 249.667,263.835 249.5,229.5 Z"/></g>
<g><path style="opacity:1" fill="#2b4d6a" d="M 283.5,324.5 C 281.646,325.241 279.979,326.241 278.5,327.5C 279.028,326.279 279.695,325.113 280.5,324C 279.525,318.259 279.192,312.425 279.5,306.5C 280.973,305.26 282.64,304.26 284.5,303.5C 285.282,305.329 284.616,306.829 282.5,308C 283.5,309 284.5,310 285.5,311C 283.109,312.309 283.109,313.309 285.5,314C 283.355,315.818 283.355,317.318 285.5,318.5C 283.009,319.541 283.009,320.374 285.5,321C 284.359,321.741 284.359,322.575 285.5,323.5C 285.043,324.298 284.376,324.631 283.5,324.5 Z"/></g>
<g><path style="opacity:0.004" fill="#fefffe" d="M 107.5,323.5 C 108.833,324.167 108.833,324.167 107.5,323.5 Z"/></g>
<g><path style="opacity:0.004" fill="#fefffe" d="M 444.5,323.5 C 445.833,324.167 445.833,324.167 444.5,323.5 Z"/></g>
<g><path style="opacity:1" fill="#152e46" d="M 313.5,311.5 C 323.5,311.5 333.5,311.5 343.5,311.5C 343.333,328.503 343.5,345.503 344,362.5C 347,365.5 350,368.5 353,371.5C 353.024,379.301 353.857,386.968 355.5,394.5C 354.427,400.712 350.76,402.879 344.5,401C 343.299,400.097 342.465,398.931 342,397.5C 343.301,389.955 343.635,382.288 343,374.5C 340.333,371.833 337.667,369.167 335,366.5C 333.601,351.21 333.101,335.877 333.5,320.5C 326.167,320.5 318.833,320.5 311.5,320.5C 310.945,316.988 311.612,313.988 313.5,311.5 Z"/></g>
<g><path style="opacity:0.004" fill="#fefffe" d="M 482.5,328.5 C 483.833,329.167 483.833,329.167 482.5,328.5 Z"/></g>
<g><path style="opacity:1" fill="#627793" d="M 283.5,324.5 C 283.047,325.458 282.381,326.292 281.5,327C 282.91,327.368 283.91,328.201 284.5,329.5C 282.147,331.523 279.814,333.523 277.5,335.5C 275.656,333.721 274.99,331.388 275.5,328.5C 276.391,327.89 277.391,327.557 278.5,327.5C 279.979,326.241 281.646,325.241 283.5,324.5 Z"/></g>
<g><path style="opacity:1" fill="#03223c" d="M 308.5,328.5 C 312.167,328.5 315.833,328.5 319.5,328.5C 319.5,333.833 319.5,339.167 319.5,344.5C 314.167,344.5 308.833,344.5 303.5,344.5C 303.5,339.167 303.5,333.833 303.5,328.5C 305.167,328.5 306.833,328.5 308.5,328.5 Z"/></g>
<g><path style="opacity:0.999" fill="#5d6974" d="M 273.5,296.5 C 273.171,311.01 273.504,325.343 274.5,339.5C 274.44,340.043 274.107,340.376 273.5,340.5C 272.174,325.672 272.174,311.005 273.5,296.5 Z"/></g>
<g><path style="opacity:1" fill="#09273d" d="M 193.5,328.5 C 196.5,328.5 199.5,328.5 202.5,328.5C 202.5,334.167 202.5,339.833 202.5,345.5C 197.167,345.5 191.833,345.5 186.5,345.5C 186.5,339.833 186.5,334.167 186.5,328.5C 188.833,328.5 191.167,328.5 193.5,328.5 Z"/></g>
<g><path style="opacity:1" fill="#0c2740" d="M 192.5,311.5 C 193.5,311.5 194.5,311.5 195.5,311.5C 195.5,314.5 195.5,317.5 195.5,320.5C 187.833,320.5 180.167,320.5 172.5,320.5C 172.667,335.837 172.5,351.17 172,366.5C 162.821,371.554 159.821,379.221 163,389.5C 166.19,393.685 165.69,397.519 161.5,401C 155.477,402.809 151.811,400.643 150.5,394.5C 153.103,386.816 154.27,378.816 154,370.5C 156.703,367.462 159.703,364.795 163,362.5C 163.194,346.103 163.027,329.103 162.5,311.5C 172.5,311.5 182.5,311.5 192.5,311.5 Z"/></g>
<g><path style="opacity:1" fill="#031b30" d="M 204.5,281.5 C 205.469,289.334 206.303,297.334 207,305.5C 207.333,304.5 207.667,303.5 208,302.5C 209.011,303.337 210.178,303.67 211.5,303.5C 212.167,314.167 212.833,314.167 213.5,303.5C 215.451,303.227 216.951,303.893 218,305.5C 217.361,309.177 217.527,312.843 218.5,316.5C 217.461,318.531 215.795,319.864 213.5,320.5C 215.577,322.082 217.91,323.082 220.5,323.5C 221.289,323.783 221.956,324.283 222.5,325C 222.056,326.533 221.723,328.033 221.5,329.5C 224.508,331.512 227.175,333.846 229.5,336.5C 230.885,337.574 232.051,338.907 233,340.5C 233.5,334.175 233.666,327.842 233.5,321.5C 234.321,324.641 234.821,327.975 235,331.5C 236.016,332.634 236.683,332.301 237,330.5C 237.762,334.332 237.262,337.998 235.5,341.5C 236.167,341.833 236.833,342.167 237.5,342.5C 236.585,343.328 235.919,344.328 235.5,345.5C 236.754,347.334 237.421,349.334 237.5,351.5C 240.833,351.5 244.167,351.5 247.5,351.5C 248.071,360.398 247.071,369.065 244.5,377.5C 246.878,378.929 248.212,380.762 248.5,383C 247.906,383.464 247.239,383.631 246.5,383.5C 244.871,382.375 243.371,381.041 242,379.5C 241.921,375.642 241.254,371.976 240,368.5C 239.333,375.5 239.333,382.5 240,389.5C 241.332,391.66 242.832,393.66 244.5,395.5C 243.402,396.397 243.402,397.23 244.5,398C 242.777,398.523 241.444,399.523 240.5,401C 241.424,402.811 242.257,402.645 243,400.5C 243.167,401 243.333,401.5 243.5,402C 242.571,403.077 241.904,404.244 241.5,405.5C 237.276,401.78 233.109,397.78 229,393.5C 228.667,386.833 228.333,380.167 228,373.5C 226.955,372.627 226.122,371.627 225.5,370.5C 225.666,363.159 225.5,355.826 225,348.5C 221.613,344.961 217.447,343.628 212.5,344.5C 212.666,337.492 212.5,330.492 212,323.5C 209.295,320.964 206.795,318.297 204.5,315.5C 204.5,304.167 204.5,292.833 204.5,281.5 Z"/></g>
<g><path style="opacity:1" fill="#041b2f" d="M 294.5,323.5 C 294.5,330.5 294.5,337.5 294.5,344.5C 289.235,343.571 284.735,344.904 281,348.5C 280.5,356.159 280.334,363.826 280.5,371.5C 279.069,373.189 278.236,375.189 278,377.5C 277.667,383.167 277.333,388.833 277,394.5C 273.5,398 270,401.5 266.5,405C 258.173,405.5 249.84,405.666 241.5,405.5C 241.904,404.244 242.571,403.077 243.5,402C 243.333,401.5 243.167,401 243,400.5C 242.257,402.645 241.424,402.811 240.5,401C 241.444,399.523 242.777,398.523 244.5,398C 243.402,397.23 243.402,396.397 244.5,395.5C 250.176,395.666 255.843,395.499 261.5,395C 263.373,393.296 265.04,391.463 266.5,389.5C 267.819,382.323 267.819,374.99 266.5,367.5C 265.893,367.624 265.56,367.957 265.5,368.5C 265.823,372.226 265.489,375.893 264.5,379.5C 261.932,381.673 259.599,384.006 257.5,386.5C 257.5,374.167 257.5,361.833 257.5,349.5C 258.239,349.369 258.906,349.536 259.5,350C 258.359,355.75 258.193,361.584 259,367.5C 259.171,362.136 259.671,356.802 260.5,351.5C 263.985,351.311 267.652,351.311 271.5,351.5C 270.314,348.488 270.48,345.488 272,342.5C 272.543,344.631 273.376,346.631 274.5,348.5C 275.799,347.91 276.632,346.91 277,345.5C 277.333,345.833 277.667,346.167 278,346.5C 281.576,343.435 285.743,341.768 290.5,341.5C 291.286,336.219 291.786,330.885 292,325.5C 292.708,324.619 293.542,323.953 294.5,323.5 Z"/></g>
<g><path style="opacity:0.004" fill="#fefffe" d="M 66.5,343.5 C 67.8333,344.167 67.8333,344.167 66.5,343.5 Z"/></g>
<g><path style="opacity:0.698" fill="#314250" d="M 319.5,328.5 C 320.489,333.975 320.822,339.642 320.5,345.5C 315.167,345.5 309.833,345.5 304.5,345.5C 303.833,345.5 303.5,345.167 303.5,344.5C 308.833,344.5 314.167,344.5 319.5,344.5C 319.5,339.167 319.5,333.833 319.5,328.5 Z"/></g>
<g><path style="opacity:1" fill="#092641" d="M 152.5,359.5 C 147.481,359.752 142.481,360.252 137.5,361C 133.091,365.812 128.924,365.646 125,360.5C 123.662,352.673 126.829,349.34 134.5,350.5C 137.962,351.482 141.629,351.815 145.5,351.5C 145.5,348.5 145.5,345.5 145.5,342.5C 129.658,342.17 113.991,342.504 98.5,343.5C 91.8224,352.928 83.989,353.928 75,346.5C 69.6328,337.146 71.7995,329.979 81.5,325C 89.6428,323.071 95.3094,325.905 98.5,333.5C 113.819,334.499 129.152,334.833 144.5,334.5C 145.177,323.431 145.843,312.265 146.5,301C 146.043,300.586 145.709,300.086 145.5,299.5C 148.117,295.39 149.95,295.723 151,300.5C 151.5,302.5 152,304.5 152.5,306.5C 152.037,309.507 150.537,310.507 148,309.5C 147.064,316.298 147.564,322.964 149.5,329.5C 150.086,329.709 150.586,330.043 151,330.5C 151.333,327.167 151.667,323.833 152,320.5C 152.5,333.496 152.667,346.496 152.5,359.5 Z M 84.5,333.5 C 90.2925,334.421 91.6258,337.255 88.5,342C 83.5454,343.376 81.3787,341.542 82,336.5C 83.045,335.627 83.8783,334.627 84.5,333.5 Z"/></g>
<g><path style="opacity:0.557" fill="#566b7c" d="M 98.5,343.5 C 113.991,342.504 129.658,342.17 145.5,342.5C 145.5,345.5 145.5,348.5 145.5,351.5C 141.629,351.815 137.962,351.482 134.5,350.5C 137.833,350.5 141.167,350.5 144.5,350.5C 144.5,348.167 144.5,345.833 144.5,343.5C 129.167,343.5 113.833,343.5 98.5,343.5 Z"/></g>
<g><path style="opacity:0.004" fill="#fefffe" d="M 29.5,348.5 C 30.8333,349.167 30.8333,349.167 29.5,348.5 Z"/></g>
<g><path style="opacity:1" fill="#0b2842" d="M 361.5,302.5 C 361.5,313.167 361.5,323.833 361.5,334.5C 376.833,334.5 392.167,334.5 407.5,334.5C 410.056,326.227 415.723,323.06 424.5,325C 433.762,329.922 435.929,337.089 431,346.5C 422.695,353.605 415.195,352.939 408.5,344.5C 408.611,343.883 408.944,343.383 409.5,343C 393.328,342.172 377.328,342.339 361.5,343.5C 361.5,345.833 361.5,348.167 361.5,350.5C 366.233,350.777 370.9,350.443 375.5,349.5C 381.649,350.815 383.815,354.482 382,360.5C 378.08,365.368 373.913,365.701 369.5,361.5C 364.117,360.789 358.784,360.122 353.5,359.5C 353.837,342.829 354.67,326.829 356,311.5C 356.333,309.167 356.667,306.833 357,304.5C 357.333,309.833 357.667,315.167 358,320.5C 359.914,321.676 359.748,322.676 357.5,323.5C 357.938,324.506 358.604,324.506 359.5,323.5C 360.133,315.771 360.8,308.771 361.5,302.5 Z M 418.5,333.5 C 424.651,334.103 425.984,336.936 422.5,342C 415.43,342.024 414.096,339.191 418.5,333.5 Z"/></g>
<g><path style="opacity:0.614" fill="#4d6375" d="M 361.5,343.5 C 377.328,342.339 393.328,342.172 409.5,343C 408.944,343.383 408.611,343.883 408.5,344.5C 392.911,343.516 377.244,343.183 361.5,343.5 Z"/></g>
<g><path style="opacity:0.646" fill="#3c4e62" d="M 306.5,353.5 C 312.69,353.177 318.69,353.51 324.5,354.5C 313.167,354.5 301.833,354.5 290.5,354.5C 290.5,356.833 290.5,359.167 290.5,361.5C 299.349,361.174 308.016,361.507 316.5,362.5C 308.167,362.5 299.833,362.5 291.5,362.5C 289.612,360.012 288.945,357.012 289.5,353.5C 295.167,353.5 300.833,353.5 306.5,353.5 Z"/></g>
<g><path style="opacity:1" fill="#0c263e" d="M 201.5,353.5 C 206.5,353.5 211.5,353.5 216.5,353.5C 216.81,356.713 216.477,359.713 215.5,362.5C 207.167,362.5 198.833,362.5 190.5,362.5C 190.5,366.167 190.5,369.833 190.5,373.5C 197.086,374.928 200.753,379.095 201.5,386C 198.741,397.879 191.741,401.546 180.5,397C 175.912,392.811 174.412,387.645 176,381.5C 176.861,378.632 178.528,376.298 181,374.5C 181.5,367.508 181.666,360.508 181.5,353.5C 188.167,353.5 194.833,353.5 201.5,353.5 Z M 185.5,382.5 C 190.006,381.527 192.172,383.194 192,387.5C 185.645,391.201 183.478,389.534 185.5,382.5 Z"/></g>
<g><path style="opacity:0.004" fill="#fefffe" d="M 113.5,359.5 C 114.833,360.167 114.833,360.167 113.5,359.5 Z"/></g>
<g><path style="opacity:1" fill="#95b5cd" d="M 257.5,349.5 C 257.5,361.833 257.5,374.167 257.5,386.5C 256.796,380.895 256.13,374.562 255.5,367.5C 254.808,366.975 254.308,366.308 254,365.5C 253.581,366.672 252.915,367.672 252,368.5C 251.066,367.142 250.232,365.808 249.5,364.5C 249.334,359.489 249.501,354.489 250,349.5C 250.637,351.303 251.803,352.636 253.5,353.5C 254.521,351.812 255.855,350.479 257.5,349.5 Z"/></g>
<g><path style="opacity:1" fill="#566876" d="M 265.5,368.5 C 265.56,367.957 265.893,367.624 266.5,367.5C 267.819,374.99 267.819,382.323 266.5,389.5C 266.825,382.313 266.491,375.313 265.5,368.5 Z"/></g>
<g><path style="opacity:1" fill="#c1d8e8" d="M 249.5,364.5 C 250.232,365.808 251.066,367.142 252,368.5C 252.915,367.672 253.581,366.672 254,365.5C 254.308,366.308 254.808,366.975 255.5,367.5C 256.13,374.562 256.796,380.895 257.5,386.5C 259.599,384.006 261.932,381.673 264.5,379.5C 265.489,375.893 265.823,372.226 265.5,368.5C 266.491,375.313 266.825,382.313 266.5,389.5C 265.04,391.463 263.373,393.296 261.5,395C 255.843,395.499 250.176,395.666 244.5,395.5C 242.832,393.66 241.332,391.66 240,389.5C 239.333,382.5 239.333,375.5 240,368.5C 241.254,371.976 241.921,375.642 242,379.5C 243.371,381.041 244.871,382.375 246.5,383.5C 247.122,384.627 247.955,385.627 249,386.5C 249.5,379.174 249.666,371.841 249.5,364.5 Z"/></g>
<g><path style="opacity:1" fill="#0a253d" d="M 324.5,354.5 C 324.334,361.175 324.5,367.842 325,374.5C 333.407,381.85 333.574,389.35 325.5,397C 314.259,401.546 307.259,397.879 304.5,386C 305.46,379.041 309.293,374.541 316,372.5C 316.498,369.183 316.665,365.85 316.5,362.5C 308.016,361.507 299.349,361.174 290.5,361.5C 290.5,359.167 290.5,356.833 290.5,354.5C 301.833,354.5 313.167,354.5 324.5,354.5 Z M 315.5,382.5 C 320.709,381.705 322.709,383.705 321.5,388.5C 315.129,390.796 313.129,388.796 315.5,382.5 Z"/></g>
<g><path style="opacity:0.004" fill="#fefffe" d="M 212.5,387.5 C 213.833,388.167 213.833,388.167 212.5,387.5 Z"/></g>
<g><path style="opacity:0.004" fill="#fefffe" d="M 40.5,395.5 C 41.8333,396.167 41.8333,396.167 40.5,395.5 Z"/></g>
<g><path style="opacity:0.004" fill="#fefffe" d="M 454.5,403.5 C 455.833,404.167 455.833,404.167 454.5,403.5 Z"/></g>
<g><path style="opacity:0.004" fill="#fefffe" d="M 107.5,406.5 C 108.833,407.167 108.833,407.167 107.5,406.5 Z"/></g>
<g><path style="opacity:0.004" fill="#fefffe" d="M 55.5,408.5 C 56.8333,409.167 56.8333,409.167 55.5,408.5 Z"/></g>
<g><path style="opacity:0.004" fill="#fefffe" d="M 136.5,408.5 C 137.833,409.167 137.833,409.167 136.5,408.5 Z"/></g>
<g><path style="opacity:0.004" fill="#fefffe" d="M 164.5,418.5 C 165.833,419.167 165.833,419.167 164.5,418.5 Z"/></g>
<g><path style="opacity:0.004" fill="#fefffe" d="M 260.5,423.5 C 261.833,424.167 261.833,424.167 260.5,423.5 Z"/></g>
<g><path style="opacity:0.004" fill="#fefffe" d="M 88.5,427.5 C 89.8333,428.167 89.8333,428.167 88.5,427.5 Z"/></g>
<g><path style="opacity:0.004" fill="#fefffe" d="M 175.5,428.5 C 176.833,429.167 176.833,429.167 175.5,428.5 Z"/></g>
<g><path style="opacity:0.004" fill="#fefffe" d="M 134.5,433.5 C 135.833,434.167 135.833,434.167 134.5,433.5 Z"/></g>
<g><path style="opacity:0.004" fill="#fefffe" d="M 329.5,439.5 C 330.833,440.167 330.833,440.167 329.5,439.5 Z"/></g>
<g><path style="opacity:0.004" fill="#fefffe" d="M 477.5,442.5 C 478.833,443.167 478.833,443.167 477.5,442.5 Z"/></g>
<g><path style="opacity:0.004" fill="#fefffe" d="M 241.5,444.5 C 242.833,445.167 242.833,445.167 241.5,444.5 Z"/></g>
<g><path style="opacity:0.004" fill="#fefffe" d="M 102.5,459.5 C 103.833,460.167 103.833,460.167 102.5,459.5 Z"/></g>
<g><path style="opacity:0.004" fill="#fefffe" d="M 29.5,463.5 C 30.8333,464.167 30.8333,464.167 29.5,463.5 Z"/></g>
<g><path style="opacity:0.004" fill="#fefffe" d="M 294.5,464.5 C 295.833,465.167 295.833,465.167 294.5,464.5 Z"/></g>
<g><path style="opacity:0.004" fill="#fefffe" d="M 104.5,471.5 C 105.833,472.167 105.833,472.167 104.5,471.5 Z"/></g>
<g><path style="opacity:0.004" fill="#fefffe" d="M 122.5,471.5 C 123.833,472.167 123.833,472.167 122.5,471.5 Z"/></g>
<g><path style="opacity:0.004" fill="#fefffe" d="M 370.5,471.5 C 371.833,472.167 371.833,472.167 370.5,471.5 Z"/></g>
<g><path style="opacity:0.004" fill="#fefffe" d="M 11.5,472.5 C 12.8333,473.167 12.8333,473.167 11.5,472.5 Z"/></g>
<g><path style="opacity:0.004" fill="#fefffe" d="M 85.5,473.5 C 86.8333,474.167 86.8333,474.167 85.5,473.5 Z"/></g>
<g><path style="opacity:0.004" fill="#fefffe" d="M 397.5,478.5 C 398.833,479.167 398.833,479.167 397.5,478.5 Z"/></g>
<g><path style="opacity:0.004" fill="#fefffe" d="M 466.5,488.5 C 467.833,489.167 467.833,489.167 466.5,488.5 Z"/></g>
<g><path style="opacity:0.004" fill="#fefffe" d="M 240.5,489.5 C 241.833,490.167 241.833,490.167 240.5,489.5 Z"/></g>
<g><path style="opacity:0.004" fill="#fefffe" d="M 37.5,495.5 C 38.8333,496.167 38.8333,496.167 37.5,495.5 Z"/></g>
</svg>
