<svg version="1.0" xmlns="http://www.w3.org/2000/svg" width="700.000000pt" height="700.000000pt" viewBox="0 0 700.000000 700.000000" preserveAspectRatio="xMidYMid meet">
<metadata>
Created by potrace 1.12, written by Peter Selinger 2001-2015
</metadata>
<g transform="translate(0.000000,700.000000) scale(0.100000,-0.100000)" fill="#000000" stroke="none">
<path d="M4620 6984 c-14 -7 -37 -14 -51 -14 -39 0 -278 -62 -394 -103 -359
-124 -726 -321 -1034 -555 -119 -91 -426 -367 -483 -435 -24 -28 -78 -89 -120
-136 -42 -48 -89 -103 -105 -123 -301 -396 -435 -609 -618 -983 -129 -265
-189 -413 -175 -430 21 -25 39 -17 60 25 70 138 310 498 473 712 111 145 253
304 432 483 105 105 204 201 220 214 17 13 57 47 90 76 387 332 956 629 1380
719 44 10 105 23 135 29 78 17 438 16 515 -1 163 -37 384 -125 510 -205 264
-165 423 -394 466 -668 15 -98 6 -382 -16 -474 -29 -129 -29 -122 -5 -135 19
-10 26 -8 52 17 77 73 180 247 232 393 31 86 66 276 66 358 -1 130 -44 320
-103 452 -148 334 -475 609 -881 741 -49 16 -96 29 -105 29 -9 0 -29 7 -45 15
-40 21 -458 20 -496 -1z"></path>
<path d="M1150 6244 c-210 -38 -261 -54 -395 -119 -144 -69 -307 -200 -405
-324 -19 -24 -45 -56 -56 -70 -54 -66 -138 -213 -180 -314 -32 -78 -84 -235
-84 -256 0 -9 -7 -29 -15 -45 -22 -41 -22 -451 0 -492 8 -16 15 -41 15 -55 0
-75 92 -382 170 -569 17 -41 36 -88 42 -105 25 -67 170 -338 248 -465 213
-343 529 -700 850 -960 30 -25 57 -48 60 -51 7 -8 222 -166 300 -220 267 -185
609 -370 958 -519 99 -42 125 -50 137 -40 21 18 18 38 -7 51 -37 19 -246 146
-333 202 -182 117 -433 305 -605 451 -122 105 -445 427 -536 536 -377 452
-660 986 -748 1415 -9 44 -22 105 -29 135 -17 77 -16 437 1 515 70 311 232
604 430 779 98 86 291 173 434 196 118 19 389 9 506 -20 74 -17 96 -19 107
-10 23 19 18 33 -27 77 -130 124 -369 236 -573 268 -55 8 -234 15 -265 9z"></path>
<path d="M4202 5358 c-20 -20 -14 -37 21 -54 109 -56 374 -227 558 -359 252
-182 413 -319 649 -555 263 -263 424 -462 603 -750 244 -391 380 -745 439
-1145 12 -87 5 -373 -11 -440 -80 -323 -196 -544 -380 -725 -139 -137 -299
-220 -482 -249 -147 -24 -395 -9 -581 35 -21 5 -29 1 -38 -16 -10 -19 -8 -26
21 -56 45 -47 158 -124 247 -168 145 -73 356 -126 496 -126 165 1 401 64 539
146 32 19 61 34 63 34 7 0 121 87 154 117 14 13 28 23 32 23 7 0 148 164 189
220 35 49 113 178 132 220 43 94 61 142 88 224 16 49 29 96 29 105 0 9 7 29
15 45 22 41 22 451 0 492 -8 16 -15 40 -15 55 0 67 -97 397 -166 562 -14 34
-31 75 -37 92 -33 81 -184 367 -258 485 -370 597 -946 1118 -1664 1508 -121
66 -399 200 -500 241 -11 5 -41 18 -66 30 -53 24 -61 25 -77 9z"></path>
<path d="M3390 4526 c-3 -3 -37 -10 -74 -16 -241 -38 -486 -189 -634 -389
-142 -191 -207 -387 -207 -621 0 -234 68 -435 209 -624 186 -247 506 -406 817
-406 49 0 108 4 131 9 152 33 202 48 280 81 118 52 217 119 313 215 96 96 163
195 215 313 33 78 48 128 81 280 12 55 12 209 0 264 -33 152 -48 202 -81 280
-133 305 -419 535 -745 599 -64 12 -297 24 -305 15z"></path>
<path d="M5259 2703 c-160 -276 -382 -591 -567 -807 -43 -49 -96 -112 -118
-140 -57 -70 -338 -344 -454 -441 -262 -222 -630 -456 -900 -574 -30 -13 -73
-32 -95 -41 -137 -60 -329 -116 -555 -162 -89 -18 -435 -18 -515 1 -322 72
-631 246 -785 440 -71 90 -140 224 -172 336 -21 72 -23 101 -23 285 0 166 4
220 19 285 24 103 25 125 4 138 -22 15 -69 -29 -137 -128 -248 -360 -275 -773
-76 -1157 57 -111 194 -290 263 -345 26 -20 52 -42 57 -47 22 -24 94 -76 171
-123 75 -48 113 -67 224 -115 58 -26 219 -78 239 -78 9 0 29 -7 45 -15 41 -22
451 -22 492 0 16 8 41 15 55 15 46 0 288 66 424 115 308 111 582 251 845 430
150 103 260 189 385 305 33 30 81 73 107 95 61 53 292 307 382 420 160 200
324 440 429 625 131 231 229 429 317 641 40 95 48 124 39 135 -6 8 -17 14 -24
14 -7 0 -41 -48 -76 -107z"></path>
</g>
</svg>